<svg width="432" height="344" viewBox="0 0 432 344" fill="none" xmlns="http://www.w3.org/2000/svg">
<g clip-path="url(#clip0)">
<path d="M299.257 6.59119L260.534 58.4224L266.783 63.0907L305.506 11.2595L299.257 6.59119Z" fill="#61BC30"/>
<path d="M261.909 23.7079L248.048 51.5486L255.03 55.025L268.891 27.1843L261.909 23.7079Z" fill="#61BC30"/>
<path d="M248.147 -0.0865768L234.486 46.973L241.977 49.1477L255.638 2.08806L248.147 -0.0865768Z" fill="#61BC30"/>
<path d="M223.535 14.0801L220.332 45.0153L228.09 45.8187L231.294 14.8835L223.535 14.0801Z" fill="#61BC30"/>
<path d="M211.158 10.0547L203.38 10.6509L206.047 45.4497L213.825 44.8535L211.158 10.0547Z" fill="#61BC30"/>
<path d="M193.635 23.3926L186.089 25.3676L192.141 48.4884L199.687 46.5135L193.635 23.3926Z" fill="#61BC30"/>
<path d="M179.252 36.2028L172.18 39.4937L178.931 53.9993L186.002 50.7084L179.252 36.2028Z" fill="#61BC30"/>
<path d="M169.676 52.1269L163.304 56.626L166.938 61.7724L173.309 57.2734L169.676 52.1269Z" fill="#61BC30"/>
<path d="M143.662 47.948L138.198 53.514L156.537 71.5195L162.002 65.9534L143.662 47.948Z" fill="#61BC30"/>
<path d="M148 83.0001L119.7 63.6001L124.1 57.1001L152.4 76.5001L148 83.0001Z" fill="#61BC30"/>
<path d="M126.965 80.7958L123.804 87.9265L141.631 95.8279L144.792 88.6972L126.965 80.7958Z" fill="#61BC30"/>
<path d="M86.6885 89.1735L84.8516 96.7543L137.723 109.565L139.56 101.985L86.6885 89.1735Z" fill="#61BC30"/>
<path d="M97.3065 113.698L96.853 121.484L136.286 123.781L136.739 115.994L97.3065 113.698Z" fill="#61BC30"/>
<path d="M136.492 130.209L98.2727 134.864L99.2157 142.607L137.435 137.952L136.492 130.209Z" fill="#61BC30"/>
<path d="M138.848 144.353L130.252 147.019L132.563 154.469L141.159 151.802L138.848 144.353Z" fill="#61BC30"/>
<path d="M143.558 157.796L114.822 172.764L118.426 179.682L147.161 164.713L143.558 157.796Z" fill="#61BC30"/>
<path d="M150.686 170.26L123.111 191.653L127.893 197.816L155.467 176.422L150.686 170.26Z" fill="#61BC30"/>
<path d="M159.97 181.095L137.198 206.479L143.005 211.688L165.777 186.304L159.97 181.095Z" fill="#61BC30"/>
<path d="M170.909 190.158L162.679 203.529L169.321 207.617L177.551 194.247L170.909 190.158Z" fill="#61BC30"/>
<path d="M183.307 197.214L172.171 225.714L179.436 228.553L190.572 200.052L183.307 197.214Z" fill="#61BC30"/>
<path d="M196.931 201.808L191.547 229.389L199.202 230.883L204.586 203.303L196.931 201.808Z" fill="#61BC30"/>
<path d="M210.965 204.037L210.703 223.535L218.503 223.64L218.764 204.142L210.965 204.037Z" fill="#61BC30"/>
<path d="M232.914 202.323L225.221 203.614L231.477 240.893L239.17 239.602L232.914 202.323Z" fill="#61BC30"/>
<path d="M246.602 198.029L239.264 200.672L246.991 222.123L254.329 219.479L246.602 198.029Z" fill="#61BC30"/>
<path d="M252.5 195.3L280.8 243.6L287.6 239.7L259.2 191.4L252.5 195.3Z" fill="#61BC30"/>
<path d="M269 192.3L264.7 187.8L270.3 182.4L274.6 186.9L269 192.3Z" fill="#61BC30"/>
<path d="M279.985 172.013L275.041 178.046L294.534 194.018L299.477 187.984L279.985 172.013Z" fill="#61BC30"/>
<path d="M287.414 159.743L283.627 166.562L303.559 177.631L307.346 170.812L287.414 159.743Z" fill="#61BC30"/>
<path d="M292.563 146.456L290.056 153.842L299.619 157.089L302.127 149.703L292.563 146.456Z" fill="#61BC30"/>
<path d="M295.235 132.431L294.086 140.146L324.155 144.624L325.304 136.909L295.235 132.431Z" fill="#61BC30"/>
<path d="M314.671 117.497L295.381 118.108L295.628 125.904L314.918 125.293L314.671 117.497Z" fill="#61BC30"/>
<path d="M316.801 98.9315L292.943 104.041L294.576 111.668L318.435 106.558L316.801 98.9315Z" fill="#61BC30"/>
<path d="M303.489 84.3038L288.049 90.6648L291.02 97.8767L306.46 91.5156L303.489 84.3038Z" fill="#61BC30"/>
<path d="M321.753 52.0991L280.92 78.2745L285.13 84.8414L325.962 58.6659L321.753 52.0991Z" fill="#61BC30"/>
<path d="M277.741 61.7793L271.594 67.5039L276.91 73.2119L283.057 67.4874L277.741 61.7793Z" fill="#61BC30"/>
<path d="M244.8 89L241.8 86.5L243.9 84.1L246.8 86.6L245.4 88.3L244.8 89Z" fill="#DA2E29"/>
<path d="M236.18 79.8089L230.879 90.463L234.371 92.2005L239.672 81.5464L236.18 79.8089Z" fill="#DA2E29"/>
<path d="M227.786 76.887L225.865 83.5144L229.611 84.6002L231.532 77.9727L227.786 76.887Z" fill="#DA2E29"/>
<path d="M219.077 75.6679L217.867 87.4054L221.746 87.8051L222.956 76.0677L219.077 75.6679Z" fill="#DA2E29"/>
<path d="M214.185 75.5717L210.296 75.8696L211.129 86.738L215.018 86.44L214.185 75.5717Z" fill="#DA2E29"/>
<path d="M205.487 76.6299L201.714 77.6178L205.21 90.9679L208.983 89.98L205.487 76.6299Z" fill="#DA2E29"/>
<path d="M197.132 79.3083L193.596 80.9537L200.389 95.55L203.924 93.9046L197.132 79.3083Z" fill="#DA2E29"/>
<path d="M198 102.7L186.1 85.6L189.3 83.4L201.2 100.4L198 102.7Z" fill="#DA2E29"/>
<path d="M182.426 88.8041L179.694 91.5868L189.255 100.976L191.987 98.1935L182.426 88.8041Z" fill="#DA2E29"/>
<path d="M176.594 95.3783L174.403 98.604L184.328 105.348L186.52 102.122L176.594 95.3783Z" fill="#DA2E29"/>
<path d="M171.985 102.901L170.405 106.466L184.483 112.706L186.064 109.141L171.985 102.901Z" fill="#DA2E29"/>
<path d="M168.844 111.121L167.926 114.911L173.271 116.207L174.19 112.416L168.844 111.121Z" fill="#DA2E29"/>
<path d="M167.186 119.744L166.959 123.638L176.743 124.206L176.969 120.313L167.186 119.744Z" fill="#DA2E29"/>
<path d="M177.12 127.292L167.095 128.515L167.568 132.386L177.593 131.163L177.12 127.292Z" fill="#DA2E29"/>
<path d="M169.8 140.9L168.6 137.2L187.5 131.4L188.7 135.1L169.8 140.9Z" fill="#DA2E29"/>
<path d="M182.017 140.013L171.644 145.425L173.448 148.883L183.821 143.47L182.017 140.013Z" fill="#DA2E29"/>
<path d="M184.81 146.207L176.038 153.008L178.427 156.09L187.199 149.289L184.81 146.207Z" fill="#DA2E29"/>
<path d="M189.444 151.184L181.763 159.743L184.666 162.348L192.347 153.789L189.444 151.184Z" fill="#DA2E29"/>
<path d="M197.072 151.519L188.635 165.232L191.957 167.275L200.394 153.563L197.072 151.519Z" fill="#DA2E29"/>
<path d="M200.715 158.235L196.316 169.507L199.95 170.925L204.348 159.653L200.715 158.235Z" fill="#DA2E29"/>
<path d="M207.161 159.288L204.63 172.243L208.457 172.991L210.989 160.036L207.161 159.288Z" fill="#DA2E29"/>
<path d="M213.564 158.18L213.36 173.579L217.26 173.63L217.463 158.232L213.564 158.18Z" fill="#DA2E29"/>
<path d="M224.34 162.635L220.494 163.281L222.165 173.241L226.011 172.596L224.34 162.635Z" fill="#DA2E29"/>
<path d="M229.363 156.09L225.694 157.414L230.717 171.334L234.386 170.011L229.363 156.09Z" fill="#DA2E29"/>
<path d="M240.397 162.777L237.022 164.731L238.876 167.933L242.251 165.979L240.397 162.777Z" fill="#DA2E29"/>
<path d="M246.3 163.2L232.3 146.8L235.3 144.3L249.2 160.6L246.3 163.2Z" fill="#DA2E29"/>
<path d="M244.758 145.671L242.286 148.688L252.651 157.182L255.123 154.165L244.758 145.671Z" fill="#DA2E29"/>
<path d="M247.357 139.747L245.464 143.157L257.877 150.052L259.771 146.643L247.357 139.747Z" fill="#DA2E29"/>
<path d="M261.8 142.2L244.3 136.2L245.6 132.5L263 138.5L261.8 142.2Z" fill="#DA2E29"/>
<path d="M252.992 128.147L252.416 132.004L264.185 133.761L264.761 129.904L252.992 128.147Z" fill="#DA2E29"/>
<path d="M264.935 121.06L249.743 121.544L249.867 125.442L265.06 124.958L264.935 121.06Z" fill="#DA2E29"/>
<path d="M263.547 112.382L250.054 115.276L250.872 119.089L264.365 116.195L263.547 112.382Z" fill="#DA2E29"/>
<path d="M260.58 104.138L245.968 110.15L247.452 113.757L262.064 107.745L260.58 104.138Z" fill="#DA2E29"/>
<path d="M256.199 96.4808L250.389 100.203L252.493 103.487L258.303 99.7646L256.199 96.4808Z" fill="#DA2E29"/>
<path d="M250.552 89.7017L236.937 102.374L239.594 105.229L253.209 92.5565L250.552 89.7017Z" fill="#DA2E29"/>
<path d="M74.8695 321.687V330.455H85.177V333.22H74.8695V344H71.4745V318.922H86.927V321.687H74.8695ZM120.495 331.47C120.495 333.348 120.198 335.075 119.603 336.65C119.008 338.213 118.168 339.561 117.083 340.692C115.998 341.824 114.691 342.705 113.163 343.335C111.646 343.953 109.966 344.263 108.123 344.263C106.279 344.263 104.599 343.953 103.083 343.335C101.566 342.705 100.265 341.824 99.1803 340.692C98.0953 339.561 97.2553 338.213 96.6603 336.65C96.0653 335.075 95.7678 333.348 95.7678 331.47C95.7678 329.592 96.0653 327.871 96.6603 326.307C97.2553 324.732 98.0953 323.379 99.1803 322.247C100.265 321.104 101.566 320.217 103.083 319.587C104.599 318.957 106.279 318.642 108.123 318.642C109.966 318.642 111.646 318.957 113.163 319.587C114.691 320.217 115.998 321.104 117.083 322.247C118.168 323.379 119.008 324.732 119.603 326.307C120.198 327.871 120.495 329.592 120.495 331.47ZM117.013 331.47C117.013 329.93 116.803 328.547 116.383 327.322C115.963 326.097 115.368 325.065 114.598 324.225C113.828 323.373 112.894 322.72 111.798 322.265C110.701 321.81 109.476 321.582 108.123 321.582C106.781 321.582 105.562 321.81 104.465 322.265C103.369 322.72 102.429 323.373 101.648 324.225C100.878 325.065 100.283 326.097 99.8628 327.322C99.4428 328.547 99.2328 329.93 99.2328 331.47C99.2328 333.01 99.4428 334.392 99.8628 335.617C100.283 336.831 100.878 337.863 101.648 338.715C102.429 339.555 103.369 340.202 104.465 340.657C105.562 341.101 106.781 341.322 108.123 341.322C109.476 341.322 110.701 341.101 111.798 340.657C112.894 340.202 113.828 339.555 114.598 338.715C115.368 337.863 115.963 336.831 116.383 335.617C116.803 334.392 117.013 333.01 117.013 331.47ZM141.33 341.305C142.368 341.305 143.296 341.13 144.113 340.78C144.929 340.43 145.618 339.94 146.178 339.31C146.749 338.68 147.181 337.927 147.473 337.052C147.776 336.177 147.928 335.215 147.928 334.165V318.922H151.305V334.165C151.305 335.612 151.072 336.953 150.605 338.19C150.15 339.427 149.491 340.5 148.628 341.41C147.776 342.308 146.732 343.014 145.495 343.527C144.258 344.041 142.87 344.298 141.33 344.298C139.79 344.298 138.402 344.041 137.165 343.527C135.928 343.014 134.878 342.308 134.015 341.41C133.152 340.5 132.487 339.427 132.02 338.19C131.565 336.953 131.338 335.612 131.338 334.165V318.922H134.715V334.147C134.715 335.197 134.861 336.16 135.153 337.035C135.456 337.91 135.888 338.662 136.448 339.292C137.019 339.922 137.713 340.418 138.53 340.78C139.358 341.13 140.292 341.305 141.33 341.305ZM184.007 318.922V344H182.31C182.042 344 181.814 343.953 181.627 343.86C181.452 343.767 181.277 343.609 181.102 343.387L166.595 324.487C166.618 324.779 166.636 325.065 166.647 325.345C166.659 325.625 166.665 325.887 166.665 326.132V344H163.69V318.922H165.44C165.592 318.922 165.72 318.934 165.825 318.957C165.93 318.969 166.023 318.998 166.105 319.045C166.187 319.08 166.268 319.138 166.35 319.22C166.432 319.29 166.519 319.383 166.612 319.5L181.12 338.382C181.097 338.079 181.073 337.787 181.05 337.507C181.038 337.216 181.032 336.942 181.032 336.685V318.922H184.007ZM218.453 331.47C218.453 333.348 218.156 335.057 217.561 336.597C216.966 338.137 216.126 339.456 215.041 340.552C213.956 341.649 212.649 342.501 211.121 343.107C209.604 343.702 207.924 344 206.081 344H196.718V318.922H206.081C207.924 318.922 209.604 319.226 211.121 319.832C212.649 320.427 213.956 321.279 215.041 322.387C216.126 323.484 216.966 324.802 217.561 326.342C218.156 327.882 218.453 329.592 218.453 331.47ZM214.971 331.47C214.971 329.93 214.761 328.553 214.341 327.34C213.921 326.127 213.326 325.1 212.556 324.26C211.786 323.42 210.853 322.778 209.756 322.335C208.659 321.892 207.434 321.67 206.081 321.67H200.113V341.252H206.081C207.434 341.252 208.659 341.031 209.756 340.587C210.853 340.144 211.786 339.508 212.556 338.68C213.326 337.84 213.921 336.813 214.341 335.6C214.761 334.387 214.971 333.01 214.971 331.47ZM242.278 334.69L238.341 324.487C238.224 324.184 238.102 323.834 237.973 323.437C237.845 323.029 237.722 322.597 237.606 322.142C237.361 323.087 237.11 323.875 236.853 324.505L232.916 334.69H242.278ZM249.348 344H246.723C246.42 344 246.175 343.924 245.988 343.772C245.802 343.621 245.662 343.428 245.568 343.195L243.223 337.14H231.971L229.626 343.195C229.556 343.405 229.422 343.592 229.223 343.755C229.025 343.918 228.78 344 228.488 344H225.863L235.891 318.922H239.321L249.348 344ZM273.444 321.775H265.324V344H261.946V321.775H253.809V318.922H273.444V321.775ZM286.86 344H283.465V318.922H286.86V344ZM322.745 331.47C322.745 333.348 322.447 335.075 321.852 336.65C321.257 338.213 320.417 339.561 319.332 340.692C318.247 341.824 316.94 342.705 315.412 343.335C313.895 343.953 312.215 344.263 310.372 344.263C308.529 344.263 306.849 343.953 305.332 343.335C303.815 342.705 302.515 341.824 301.43 340.692C300.345 339.561 299.505 338.213 298.91 336.65C298.315 335.075 298.017 333.348 298.017 331.47C298.017 329.592 298.315 327.871 298.91 326.307C299.505 324.732 300.345 323.379 301.43 322.247C302.515 321.104 303.815 320.217 305.332 319.587C306.849 318.957 308.529 318.642 310.372 318.642C312.215 318.642 313.895 318.957 315.412 319.587C316.94 320.217 318.247 321.104 319.332 322.247C320.417 323.379 321.257 324.732 321.852 326.307C322.447 327.871 322.745 329.592 322.745 331.47ZM319.262 331.47C319.262 329.93 319.052 328.547 318.632 327.322C318.212 326.097 317.617 325.065 316.847 324.225C316.077 323.373 315.144 322.72 314.047 322.265C312.95 321.81 311.725 321.582 310.372 321.582C309.03 321.582 307.811 321.81 306.715 322.265C305.618 322.72 304.679 323.373 303.897 324.225C303.127 325.065 302.532 326.097 302.112 327.322C301.692 328.547 301.482 329.93 301.482 331.47C301.482 333.01 301.692 334.392 302.112 335.617C302.532 336.831 303.127 337.863 303.897 338.715C304.679 339.555 305.618 340.202 306.715 340.657C307.811 341.101 309.03 341.322 310.372 341.322C311.725 341.322 312.95 341.101 314.047 340.657C315.144 340.202 316.077 339.555 316.847 338.715C317.617 337.863 318.212 336.831 318.632 335.617C319.052 334.392 319.262 333.01 319.262 331.47ZM354.22 318.922V344H352.522C352.254 344 352.026 343.953 351.84 343.86C351.665 343.767 351.49 343.609 351.315 343.387L336.807 324.487C336.83 324.779 336.848 325.065 336.86 325.345C336.871 325.625 336.877 325.887 336.877 326.132V344H333.902V318.922H335.652C335.804 318.922 335.932 318.934 336.037 318.957C336.142 318.969 336.235 318.998 336.317 319.045C336.399 319.08 336.48 319.138 336.562 319.22C336.644 319.29 336.731 319.383 336.825 319.5L351.332 338.382C351.309 338.079 351.285 337.787 351.262 337.507C351.25 337.216 351.245 336.942 351.245 336.685V318.922H354.22Z" fill="#61BC30"/>
<path d="M28 285.8C28 287.8 27.7 289.6 27 291.3C26.3 293 25.4 294.5 24.2 295.7C23 296.9 21.4999 297.9 19.7999 298.6C18.0999 299.3 16.2 299.7 14.1 299.7C12 299.7 10.1 299.3 8.39995 298.6C6.69995 297.9 5.19995 296.9 3.99995 295.7C2.79995 294.5 1.79995 293 1.19995 291.3C0.499951 289.6 0.199951 287.7 0.199951 285.8C0.199951 283.8 0.499951 282 1.19995 280.3C1.89995 278.6 2.79995 277.1 3.99995 275.9C5.19995 274.7 6.69995 273.7 8.39995 273C10.1 272.3 12 271.9 14.1 271.9C16.2 271.9 18.0999 272.3 19.7999 273C21.4999 273.7 23 274.7 24.2 275.9C25.4 277.1 26.4 278.6 27 280.3C27.6 282 28 283.8 28 285.8ZM22.2 285.8C22.2 284.4 22 283.1 21.6 282C21.2 280.9 20.7 279.9 20 279.1C19.3 278.3 18.4 277.7 17.4 277.3C16.4 276.9 15.2 276.7 14 276.7C12.7 276.7 11.6 276.9 10.6 277.3C9.59995 277.7 8.69995 278.3 7.99995 279.1C7.29995 279.9 6.69995 280.9 6.39995 282C5.99995 283.1 5.79995 284.4 5.79995 285.8C5.79995 287.2 5.99995 288.5 6.39995 289.7C6.79995 290.8 7.29995 291.8 7.99995 292.6C8.69995 293.4 9.59995 294 10.6 294.4C11.6 294.8 12.8 295 14 295C15.3 295 16.4 294.8 17.4 294.4C18.4 294 19.3 293.4 20 292.6C20.7 291.8 21.3 290.8 21.6 289.7C22 288.6 22.2 287.3 22.2 285.8Z" fill="#61BC30"/>
<path d="M43.6999 290.1V299.5H38.0999V272.2H47.2999C49.1999 272.2 50.7999 272.4 52.0999 272.9C53.4999 273.3 54.5999 274 55.4999 274.7C56.3999 275.5 56.9999 276.4 57.3999 277.5C57.7999 278.6 57.9999 279.8 57.9999 281C57.9999 282.3 57.7999 283.6 57.2999 284.7C56.8999 285.8 56.1999 286.8 55.2999 287.6C54.3999 288.4 53.2999 289 51.8999 289.5C50.4999 289.9 48.9999 290.2 47.0999 290.2H43.6999V290.1ZM43.6999 285.8H47.2999C49.0999 285.8 50.3999 285.4 51.1999 284.5C51.9999 283.6 52.3999 282.5 52.3999 281C52.3999 280.3 52.2999 279.7 52.0999 279.1C51.8999 278.5 51.5999 278.1 51.1999 277.7C50.7999 277.3 50.2999 277 49.5999 276.8C48.9999 276.6 48.1999 276.5 47.2999 276.5H43.6999V285.8V285.8Z" fill="#61BC30"/>
<path d="M84.9999 272.2V276.6H73.2999V283.6H82.3999V287.9H73.2999V295.1H84.9999V299.5H67.5999V272.2H84.9999V272.2Z" fill="#61BC30"/>
<path d="M98.6999 272.2C98.8999 272.2 98.9999 272.3 99.1999 272.3C99.2999 272.4 99.4999 272.5 99.5999 272.6C99.6999 272.7 99.8999 272.9 99.9999 273.1L113.7 290.5C113.6 290 113.6 289.6 113.6 289.1C113.6 288.6 113.6 288.2 113.6 287.8V272.2H118.6V299.5H115.7C115.3 299.5 114.9 299.4 114.6 299.3C114.3 299.2 114 298.9 113.7 298.6L99.9999 281.2C99.9999 281.6 100.1 282.1 100.1 282.5C100.1 282.9 100.1 283.3 100.1 283.7V299.5H95.0999V272.2H98.0999C98.2999 272.2 98.4999 272.2 98.6999 272.2Z" fill="#61BC30"/>
<path d="M150.7 283.5H151.8C152.7 283.5 153.4 283.2 153.8 282.6L160.7 273.4C161 273 161.4 272.7 161.8 272.5C162.2 272.3 162.7 272.2 163.2 272.2H168.1L159.4 283.4C158.8 284.1 158.3 284.6 157.7 285C158.1 285.2 158.5 285.4 158.9 285.7C159.3 286 159.6 286.4 159.9 286.8L168.8 299.5H163.8C163.5 299.5 163.2 299.5 163 299.4C162.8 299.3 162.6 299.3 162.4 299.2C162.2 299.1 162.1 299 161.9 298.9C161.8 298.8 161.7 298.6 161.5 298.4L154.5 288.6C154.3 288.3 154 288 153.7 287.9C153.4 287.8 152.9 287.7 152.3 287.7H150.7V299.5H145V272.2H150.6V283.5H150.7Z" fill="#61BC30"/>
<path d="M180.7 272.2C180.9 272.2 181 272.3 181.2 272.3C181.3 272.4 181.5 272.5 181.6 272.6C181.7 272.7 181.9 272.9 182 273.1L195.7 290.5C195.6 290 195.6 289.6 195.6 289.1C195.6 288.6 195.6 288.2 195.6 287.8V272.2H200.6V299.5H197.7C197.3 299.5 196.9 299.4 196.6 299.3C196.3 299.2 196 298.9 195.7 298.6L182 281.2C182 281.6 182.1 282.1 182.1 282.5C182.1 282.9 182.1 283.3 182.1 283.7V299.5H177.1V272.2H180.1C180.4 272.2 180.6 272.2 180.7 272.2Z" fill="#61BC30"/>
<path d="M238.6 285.8C238.6 287.8 238.3 289.6 237.6 291.3C236.9 293 236 294.5 234.8 295.7C233.6 296.9 232.1 297.9 230.4 298.6C228.7 299.3 226.8 299.7 224.7 299.7C222.6 299.7 220.7 299.3 219 298.6C217.3 297.9 215.8 296.9 214.6 295.7C213.4 294.5 212.4 293 211.8 291.3C211.1 289.6 210.8 287.7 210.8 285.8C210.8 283.8 211.1 282 211.8 280.3C212.5 278.6 213.4 277.1 214.6 275.9C215.8 274.7 217.3 273.7 219 273C220.7 272.3 222.6 271.9 224.7 271.9C226.8 271.9 228.7 272.3 230.4 273C232.1 273.7 233.6 274.7 234.8 275.9C236 277.1 237 278.6 237.6 280.3C238.2 282 238.6 283.8 238.6 285.8ZM232.8 285.8C232.8 284.4 232.6 283.1 232.2 282C231.8 280.9 231.3 279.9 230.6 279.1C229.9 278.3 229 277.7 228 277.3C227 276.9 225.8 276.7 224.6 276.7C223.3 276.7 222.2 276.9 221.2 277.3C220.2 277.7 219.3 278.3 218.6 279.1C217.9 279.9 217.3 280.9 217 282C216.6 283.1 216.4 284.4 216.4 285.8C216.4 287.2 216.6 288.5 217 289.7C217.4 290.8 217.9 291.8 218.6 292.6C219.3 293.4 220.2 294 221.2 294.4C222.2 294.8 223.4 295 224.6 295C225.9 295 227 294.8 228 294.4C229 294 229.9 293.4 230.6 292.6C231.3 291.8 231.9 290.8 232.2 289.7C232.6 288.6 232.8 287.3 232.8 285.8Z" fill="#61BC30"/>
<path d="M245.3 272.2H250C250.5 272.2 250.9 272.3 251.2 272.5C251.5 272.7 251.7 273 251.8 273.4L256 288.8C256.1 289.2 256.2 289.7 256.3 290.2C256.4 290.7 256.5 291.2 256.6 291.8C256.7 291.2 256.8 290.7 257 290.2C257.2 289.7 257.3 289.2 257.4 288.8L262.3 273.4C262.4 273.1 262.6 272.8 262.9 272.5C263.2 272.2 263.6 272.1 264.1 272.1H265.8C266.3 272.1 266.7 272.2 267 272.4C267.3 272.6 267.5 272.9 267.7 273.3L272.6 288.7C272.7 289.1 272.9 289.5 273 290C273.1 290.5 273.2 291 273.3 291.5C273.4 291 273.5 290.5 273.6 290C273.7 289.5 273.8 289.1 273.9 288.7L278.1 273.3C278.2 273 278.4 272.7 278.7 272.4C279 272.1 279.4 272 279.9 272H284.3L275.8 299.3H270.7L265.1 281.4C265 281.1 264.9 280.9 264.8 280.6C264.7 280.3 264.6 280 264.6 279.7C264.5 280 264.4 280.3 264.3 280.6C264.2 280.9 264.1 281.2 264 281.4L258.4 299.3H253.3L245.3 272.2Z" fill="#61BC30"/>
<path d="M299.4 294.9H310V299.5H293.8V272.2H299.4V294.9V294.9Z" fill="#61BC30"/>
<path d="M336.7 272.2V276.6H325V283.6H334.1V287.9H325V295.1H336.7V299.5H319.3V272.2H336.7V272.2Z" fill="#61BC30"/>
<path d="M371.3 285.8C371.3 287.8 371 289.6 370.3 291.3C369.6 293 368.7 294.4 367.5 295.6C366.3 296.8 364.8 297.7 363.1 298.4C361.4 299.1 359.5 299.4 357.4 299.4H346.9V272.1H357.4C359.5 272.1 361.4 272.4 363.1 273.1C364.8 273.8 366.3 274.7 367.5 275.9C368.7 277.1 369.7 278.5 370.3 280.2C371 282 371.3 283.8 371.3 285.8ZM365.5 285.8C365.5 284.4 365.3 283.1 364.9 281.9C364.5 280.8 364 279.8 363.3 279C362.6 278.2 361.7 277.6 360.7 277.2C359.7 276.8 358.5 276.6 357.3 276.6H352.5V295.1H357.3C358.6 295.1 359.7 294.9 360.7 294.5C361.7 294.1 362.6 293.5 363.3 292.7C364 291.9 364.5 290.9 364.9 289.8C365.3 288.6 365.5 287.3 365.5 285.8Z" fill="#61BC30"/>
<path d="M399.6 299.1C398 299.6 396.4 299.8 394.6 299.8C392.4 299.8 390.3 299.5 388.5 298.8C386.7 298.1 385.1 297.1 383.8 295.9C382.5 294.7 381.5 293.2 380.8 291.5C380.1 289.8 379.7 287.9 379.7 285.9C379.7 283.9 380 282 380.7 280.3C381.4 278.6 382.3 277.1 383.6 275.9C384.8 274.7 386.3 273.7 388.1 273C389.9 272.3 391.8 272 394 272C395.1 272 396.2 272.1 397.2 272.3C398.2 272.5 399.1 272.7 399.9 273.1C400.7 273.4 401.5 273.8 402.2 274.2C402.9 274.6 403.5 275.1 404.1 275.6L402.5 278.1C402.2 278.5 401.9 278.7 401.5 278.8C401.1 278.9 400.7 278.8 400.2 278.5C399.7 278.2 399.3 278 398.9 277.8C398.5 277.6 398 277.4 397.5 277.2C397 277 396.5 276.9 395.9 276.8C395.3 276.7 394.7 276.7 393.9 276.7C392.6 276.7 391.5 276.9 390.5 277.4C389.5 277.8 388.6 278.5 387.9 279.3C387.2 280.1 386.6 281.1 386.2 282.2C385.8 283.3 385.6 284.6 385.6 286C385.6 287.5 385.8 288.8 386.2 290C386.6 291.2 387.2 292.2 388 293C388.8 293.8 389.7 294.4 390.8 294.9C391.9 295.3 393.1 295.5 394.4 295.5C395.3 295.5 396.1 295.4 396.8 295.2C397.5 295 398.2 294.8 398.9 294.5V289.9H395.8C395.4 289.9 395.2 289.8 394.9 289.6C394.7 289.4 394.6 289.2 394.6 288.9V285.8H404V297.1C402.7 297.9 401.2 298.6 399.6 299.1Z" fill="#61BC30"/>
<path d="M432 272.2V276.6H420.3V283.6H429.4V287.9H420.3V295.1H432V299.5H414.6V272.2H432V272.2Z" fill="#61BC30"/>
</g>
<defs>
<clipPath id="clip0">
<rect width="432" height="344" fill="white"/>
</clipPath>
</defs>
</svg>
