<svg width="666" height="687" viewBox="0 0 666 687" fill="none" xmlns="http://www.w3.org/2000/svg">
<g clip-path="url(#clip0)">
<path d="M115.256 651.575V665.102H131.159V669.368H115.256V686H110.018V647.309H133.859V651.575H115.256ZM185.65 666.668C185.65 669.566 185.191 672.23 184.273 674.66C183.355 677.072 182.059 679.151 180.385 680.897C178.711 682.643 176.695 684.002 174.337 684.974C171.997 685.928 169.405 686.405 166.561 686.405C163.717 686.405 161.125 685.928 158.785 684.974C156.445 684.002 154.438 682.643 152.764 680.897C151.09 679.151 149.794 677.072 148.876 674.66C147.958 672.23 147.499 669.566 147.499 666.668C147.499 663.77 147.958 661.115 148.876 658.703C149.794 656.273 151.09 654.185 152.764 652.439C154.438 650.675 156.445 649.307 158.785 648.335C161.125 647.363 163.717 646.877 166.561 646.877C169.405 646.877 171.997 647.363 174.337 648.335C176.695 649.307 178.711 650.675 180.385 652.439C182.059 654.185 183.355 656.273 184.273 658.703C185.191 661.115 185.65 663.77 185.65 666.668ZM180.277 666.668C180.277 664.292 179.953 662.159 179.305 660.269C178.657 658.379 177.739 656.786 176.551 655.49C175.363 654.176 173.923 653.168 172.231 652.466C170.539 651.764 168.649 651.413 166.561 651.413C164.491 651.413 162.61 651.764 160.918 652.466C159.226 653.168 157.777 654.176 156.571 655.49C155.383 656.786 154.465 658.379 153.817 660.269C153.169 662.159 152.845 664.292 152.845 666.668C152.845 669.044 153.169 671.177 153.817 673.067C154.465 674.939 155.383 676.532 156.571 677.846C157.777 679.142 159.226 680.141 160.918 680.843C162.61 681.527 164.491 681.869 166.561 681.869C168.649 681.869 170.539 681.527 172.231 680.843C173.923 680.141 175.363 679.142 176.551 677.846C177.739 676.532 178.657 674.939 179.305 673.067C179.953 671.177 180.277 669.044 180.277 666.668ZM217.795 681.842C219.397 681.842 220.828 681.572 222.088 681.032C223.348 680.492 224.41 679.736 225.274 678.764C226.156 677.792 226.822 676.631 227.272 675.281C227.74 673.931 227.974 672.446 227.974 670.826V647.309H233.185V670.826C233.185 673.058 232.825 675.128 232.105 677.036C231.403 678.944 230.386 680.6 229.054 682.004C227.74 683.39 226.129 684.479 224.221 685.271C222.313 686.063 220.171 686.459 217.795 686.459C215.419 686.459 213.277 686.063 211.369 685.271C209.461 684.479 207.841 683.39 206.509 682.004C205.177 680.6 204.151 678.944 203.431 677.036C202.729 675.128 202.378 673.058 202.378 670.826V647.309H207.589V670.799C207.589 672.419 207.814 673.904 208.264 675.254C208.732 676.604 209.398 677.765 210.262 678.737C211.144 679.709 212.215 680.474 213.475 681.032C214.753 681.572 216.193 681.842 217.795 681.842ZM283.64 647.309V686H281.021C280.607 686 280.256 685.928 279.968 685.784C279.698 685.64 279.428 685.397 279.158 685.055L256.775 655.895C256.811 656.345 256.838 656.786 256.856 657.218C256.874 657.65 256.883 658.055 256.883 658.433V686H252.293V647.309H254.993C255.227 647.309 255.425 647.327 255.587 647.363C255.749 647.381 255.893 647.426 256.019 647.498C256.145 647.552 256.271 647.642 256.397 647.768C256.523 647.876 256.658 648.02 256.802 648.2L279.185 677.333C279.149 676.865 279.113 676.415 279.077 675.983C279.059 675.533 279.05 675.11 279.05 674.714V647.309H283.64ZM336.785 666.668C336.785 669.566 336.326 672.203 335.408 674.579C334.49 676.955 333.194 678.989 331.52 680.681C329.846 682.373 327.83 683.687 325.472 684.623C323.132 685.541 320.54 686 317.696 686H303.251V647.309H317.696C320.54 647.309 323.132 647.777 325.472 648.713C327.83 649.631 329.846 650.945 331.52 652.655C333.194 654.347 334.49 656.381 335.408 658.757C336.326 661.133 336.785 663.77 336.785 666.668ZM331.412 666.668C331.412 664.292 331.088 662.168 330.44 660.296C329.792 658.424 328.874 656.84 327.686 655.544C326.498 654.248 325.058 653.258 323.366 652.574C321.674 651.89 319.784 651.548 317.696 651.548H308.489V681.761H317.696C319.784 681.761 321.674 681.419 323.366 680.735C325.058 680.051 326.498 679.07 327.686 677.792C328.874 676.496 329.792 674.912 330.44 673.04C331.088 671.168 331.412 669.044 331.412 666.668ZM373.544 671.636L367.469 655.895C367.289 655.427 367.1 654.887 366.902 654.275C366.704 653.645 366.515 652.979 366.335 652.277C365.957 653.735 365.57 654.95 365.174 655.922L359.099 671.636H373.544ZM384.452 686H380.402C379.934 686 379.556 685.883 379.268 685.649C378.98 685.415 378.764 685.118 378.62 684.758L375.002 675.416H357.641L354.023 684.758C353.915 685.082 353.708 685.37 353.402 685.622C353.096 685.874 352.718 686 352.268 686H348.218L363.689 647.309H368.981L384.452 686ZM421.628 651.71H409.1V686H403.889V651.71H391.334V647.309H421.628V651.71ZM442.327 686H437.089V647.309H442.327V686ZM497.692 666.668C497.692 669.566 497.233 672.23 496.315 674.66C495.397 677.072 494.101 679.151 492.427 680.897C490.753 682.643 488.737 684.002 486.379 684.974C484.039 685.928 481.447 686.405 478.603 686.405C475.759 686.405 473.167 685.928 470.827 684.974C468.487 684.002 466.48 682.643 464.806 680.897C463.132 679.151 461.836 677.072 460.918 674.66C460 672.23 459.541 669.566 459.541 666.668C459.541 663.77 460 661.115 460.918 658.703C461.836 656.273 463.132 654.185 464.806 652.439C466.48 650.675 468.487 649.307 470.827 648.335C473.167 647.363 475.759 646.877 478.603 646.877C481.447 646.877 484.039 647.363 486.379 648.335C488.737 649.307 490.753 650.675 492.427 652.439C494.101 654.185 495.397 656.273 496.315 658.703C497.233 661.115 497.692 663.77 497.692 666.668ZM492.319 666.668C492.319 664.292 491.995 662.159 491.347 660.269C490.699 658.379 489.781 656.786 488.593 655.49C487.405 654.176 485.965 653.168 484.273 652.466C482.581 651.764 480.691 651.413 478.603 651.413C476.533 651.413 474.652 651.764 472.96 652.466C471.268 653.168 469.819 654.176 468.613 655.49C467.425 656.786 466.507 658.379 465.859 660.269C465.211 662.159 464.887 664.292 464.887 666.668C464.887 669.044 465.211 671.177 465.859 673.067C466.507 674.939 467.425 676.532 468.613 677.846C469.819 679.142 471.268 680.141 472.96 680.843C474.652 681.527 476.533 681.869 478.603 681.869C480.691 681.869 482.581 681.527 484.273 680.843C485.965 680.141 487.405 679.142 488.593 677.846C489.781 676.532 490.699 674.939 491.347 673.067C491.995 671.177 492.319 669.044 492.319 666.668ZM546.253 647.309V686H543.634C543.22 686 542.869 685.928 542.581 685.784C542.311 685.64 542.041 685.397 541.771 685.055L519.388 655.895C519.424 656.345 519.451 656.786 519.469 657.218C519.487 657.65 519.496 658.055 519.496 658.433V686H514.906V647.309H517.606C517.84 647.309 518.038 647.327 518.2 647.363C518.362 647.381 518.506 647.426 518.632 647.498C518.758 647.552 518.884 647.642 519.01 647.768C519.136 647.876 519.271 648.02 519.415 648.2L541.798 677.333C541.762 676.865 541.726 676.415 541.69 675.983C541.672 675.533 541.663 675.11 541.663 674.714V647.309H546.253Z" fill="white"/>
<path d="M43.2 596.6C43.2 599.7 42.7 602.5 41.6 605.2C40.6 607.8 39.1 610.1 37.2 612C35.3 613.9 33 615.4 30.4 616.5C27.8 617.6 24.8 618.1 21.6 618.1C18.4 618.1 15.4 617.6 12.8 616.5C10.2 615.4 7.9 613.9 6 612C4.1 610.1 2.6 607.8 1.6 605.2C0.6 602.6 0 599.7 0 596.6C0 593.5 0.5 590.7 1.6 588.1C2.6 585.5 4.1 583.2 6 581.3C7.9 579.4 10.2 577.9 12.8 576.8C15.4 575.7 18.4 575.2 21.6 575.2C24.8 575.2 27.8 575.7 30.4 576.8C33 577.9 35.3 579.4 37.2 581.3C39.1 583.2 40.5 585.5 41.6 588.1C42.7 590.7 43.2 593.5 43.2 596.6ZM34.3 596.6C34.3 594.4 34 592.4 33.4 590.7C32.8 589 32 587.5 30.9 586.2C29.8 585 28.5 584 26.9 583.4C25.3 582.8 23.6 582.4 21.6 582.4C19.6 582.4 17.9 582.7 16.3 583.4C14.7 584 13.4 585 12.3 586.2C11.2 587.4 10.4 588.9 9.8 590.7C9.2 592.5 8.9 594.4 8.9 596.6C8.9 598.8 9.2 600.8 9.8 602.6C10.4 604.4 11.2 605.8 12.3 607.1C13.4 608.3 14.7 609.3 16.3 609.9C17.9 610.5 19.6 610.9 21.6 610.9C23.6 610.9 25.3 610.6 26.9 609.9C28.5 609.3 29.8 608.3 30.9 607.1C32 605.9 32.8 604.4 33.4 602.6C34 600.8 34.3 598.8 34.3 596.6Z" fill="white"/>
<path d="M67.5 603.2V617.7H58.8V575.6H73C75.9 575.6 78.4 575.9 80.5 576.6C82.6 577.3 84.3 578.2 85.7 579.4C87.1 580.6 88.1 582 88.7 583.7C89.3 585.4 89.7 587.2 89.7 589.1C89.7 591.2 89.4 593.1 88.7 594.8C88 596.5 87 598 85.6 599.2C84.2 600.4 82.5001 601.4 80.4001 602.1C78.3001 602.8 75.9 603.1 73.1 603.1H67.5V603.2ZM67.5 596.5H73C75.7 596.5 77.7 595.8 79 594.5C80.3 593.2 80.9001 591.4 80.9001 589.1C80.9001 588.1 80.7001 587.1 80.4001 586.2C80.1001 585.3 79.6001 584.6 78.9001 584C78.3001 583.4 77.4001 582.9 76.4001 582.6C75.4001 582.3 74.2001 582.1 72.9001 582.1H67.4001V596.5H67.5Z" fill="white"/>
<path d="M131.1 575.6V582.4H113.1V593.2H127.1V599.8H113.1V610.8H131.1V617.6H104.3V575.5H131.1V575.6Z" fill="white"/>
<path d="M152.3 575.6C152.6 575.6 152.8 575.7 153 575.8C153.2 575.9 153.4 576 153.6 576.2C153.8 576.4 154 576.6 154.2 576.9L175.3 603.7C175.2 603 175.2 602.2 175.1 601.6C175.1 600.9 175 600.2 175 599.6V575.5H182.7V617.6H178.2C177.5 617.6 177 617.5 176.5 617.3C176 617.1 175.6 616.7 175.1 616.2L154.1 589.5C154.2 590.2 154.2 590.8 154.2 591.5C154.2 592.1 154.2 592.8 154.2 593.3V617.6H146.5V575.5H151.1C151.7 575.6 152 575.6 152.3 575.6Z" fill="white"/>
<path d="M232.4 592.9H234.1C235.5 592.9 236.6 592.5 237.2 591.6L247.8 577.4C248.3 576.7 248.9 576.3 249.5 576C250.1 575.7 250.8 575.6 251.7 575.6H259.2L245.8 592.9C244.9 594 244 594.8 243.1 595.3C243.8 595.6 244.4 595.9 244.9 596.4C245.4 596.8 246 597.4 246.5 598.1L260.2 617.7H252.5C252 617.7 251.6 617.7 251.2 617.6C250.8 617.5 250.5 617.4 250.3 617.3C250 617.2 249.8 617 249.6 616.8C249.4 616.6 249.2 616.4 249 616.1L238.2 601C237.8 600.5 237.4 600.1 236.9 599.9C236.4 599.7 235.7 599.6 234.8 599.6H232.4V617.8H223.7V575.7H232.4V592.9V592.9Z" fill="white"/>
<path d="M278.7 575.6C279 575.6 279.2 575.7 279.4 575.8C279.6 575.9 279.8 576 280 576.2C280.2 576.4 280.4 576.6 280.6 576.9L301.7 603.7C301.6 603 301.6 602.2 301.5 601.6C301.5 600.9 301.4 600.2 301.4 599.6V575.5H309.1V617.6H304.6C303.9 617.6 303.4 617.5 302.9 617.3C302.4 617.1 302 616.7 301.5 616.2L280.5 589.5C280.6 590.2 280.6 590.8 280.6 591.5C280.6 592.1 280.6 592.8 280.6 593.3V617.6H272.9V575.5H277.5C278.1 575.6 278.5 575.6 278.7 575.6Z" fill="white"/>
<path d="M367.9 596.6C367.9 599.7 367.4 602.5 366.3 605.2C365.3 607.8 363.8 610.1 361.9 612C360 613.9 357.7 615.4 355.1 616.5C352.5 617.6 349.5 618.1 346.3 618.1C343.1 618.1 340.1 617.6 337.5 616.5C334.9 615.4 332.6 613.9 330.7 612C328.8 610.1 327.3 607.8 326.3 605.2C325.3 602.6 324.7 599.7 324.7 596.6C324.7 593.5 325.2 590.7 326.3 588.1C327.3 585.5 328.8 583.2 330.7 581.3C332.6 579.4 334.9 577.9 337.5 576.8C340.1 575.7 343.1 575.2 346.3 575.2C349.5 575.2 352.5 575.7 355.1 576.8C357.7 577.9 360 579.4 361.9 581.3C363.8 583.2 365.2 585.5 366.3 588.1C367.4 590.7 367.9 593.5 367.9 596.6ZM359 596.6C359 594.4 358.7 592.4 358.1 590.7C357.5 589 356.7 587.5 355.6 586.2C354.5 585 353.2 584 351.6 583.4C350 582.8 348.3 582.4 346.3 582.4C344.3 582.4 342.6 582.7 341 583.4C339.4 584 338.1 585 337 586.2C335.9 587.4 335.1 588.9 334.5 590.7C333.9 592.5 333.6 594.4 333.6 596.6C333.6 598.8 333.9 600.8 334.5 602.6C335.1 604.4 335.9 605.8 337 607.1C338.1 608.3 339.4 609.3 341 609.9C342.6 610.5 344.3 610.9 346.3 610.9C348.3 610.9 350 610.6 351.6 609.9C353.2 609.3 354.5 608.3 355.6 607.1C356.7 605.9 357.5 604.4 358.1 602.6C358.7 600.8 359 598.8 359 596.6Z" fill="white"/>
<path d="M378.3 575.6H385.6C386.4 575.6 387 575.8 387.5 576.1C388 576.4 388.3 576.9 388.5 577.5L395 601.2C395.2 601.9 395.3 602.6 395.5 603.3C395.7 604 395.8 604.9 396 605.7C396.2 604.8 396.4 604 396.6 603.3C396.8 602.6 397 601.8 397.2 601.2L404.8 577.5C405 577 405.3 576.6 405.8 576.2C406.3 575.8 406.9 575.6 407.7 575.6H410.3C411.1 575.6 411.7 575.8 412.1 576.1C412.6 576.5 412.9 576.9 413.2 577.5L420.8 601.2C421 601.8 421.2 602.5 421.4 603.2C421.6 603.9 421.8 604.7 421.9 605.5C422.1 604.7 422.2 603.9 422.4 603.2C422.6 602.5 422.7 601.8 422.9 601.2L429.4 577.5C429.5 577 429.9 576.6 430.4 576.2C430.9 575.8 431.6 575.6 432.3 575.6H439.1L426.1 617.7H418.1L409.5 590.2C409.3 589.8 409.2 589.4 409.1 588.9C409 588.4 408.9 588 408.7 587.4C408.6 587.9 408.4 588.4 408.3 588.9C408.2 589.4 408 589.8 407.9 590.2L399.2 617.7H391.3L378.3 575.6Z" fill="white"/>
<path d="M461.6 610.6H477.9V617.7H452.9V575.6H461.6V610.6Z" fill="white"/>
<path d="M519.2 575.6V582.4H501.2V593.2H515.2V599.8H501.2V610.8H519.2V617.6H492.4V575.5H519.2V575.6Z" fill="white"/>
<path d="M572.6 596.6C572.6 599.7 572.1 602.5 571 605.1C570 607.7 568.5 609.9 566.6 611.8C564.7 613.7 562.4 615.1 559.8 616.1C557.2 617.1 554.2 617.7 551 617.7H534.8V575.6H551C554.2 575.6 557.2 576.1 559.8 577.2C562.4 578.2 564.7 579.7 566.6 581.6C568.5 583.5 569.9 585.7 571 588.3C572 590.7 572.6 593.5 572.6 596.6ZM563.6 596.6C563.6 594.4 563.3 592.4 562.7 590.7C562.1 588.9 561.3 587.5 560.2 586.2C559.1 584.9 557.8 584 556.2 583.4C554.6 582.7 552.9 582.4 550.9 582.4H543.5V610.8H550.9C552.9 610.8 554.6 610.5 556.2 609.8C557.8 609.2 559.1 608.2 560.2 607C561.3 605.8 562.1 604.3 562.7 602.5C563.3 600.8 563.6 598.8 563.6 596.6Z" fill="white"/>
<path d="M616.2 617C613.8 617.7 611.2 618.1 608.5 618.1C605 618.1 601.9 617.6 599.1 616.5C596.3 615.4 593.9 613.9 591.9 612C589.9 610.1 588.4 607.8 587.3 605.2C586.2 602.6 585.7 599.7 585.7 596.6C585.7 593.4 586.2 590.6 587.3 587.9C588.3 585.3 589.8 583 591.7 581.1C593.6 579.2 595.9 577.7 598.6 576.7C601.3 575.6 604.4 575.1 607.7 575.1C609.4 575.1 611.1 575.2 612.6 575.5C614.1 575.8 615.5 576.2 616.8 576.7C618.1 577.2 619.2 577.8 620.3 578.5C621.4 579.2 622.3 579.9 623.2 580.7L620.7 584.6C620.3 585.2 619.8 585.6 619.2 585.7C618.6 585.8 617.9 585.7 617.2 585.2C616.5 584.8 615.8 584.4 615.2 584.1C614.6 583.8 613.8 583.5 613.1 583.2C612.3 582.9 611.5 582.8 610.6 582.6C609.7 582.5 608.7 582.4 607.5 582.4C605.5 582.4 603.8 582.7 602.2 583.4C600.6 584.1 599.3 585 598.2 586.3C597.1 587.5 596.2 589 595.6 590.8C595 592.5 594.7 594.5 594.7 596.6C594.7 598.9 595 601 595.7 602.8C596.4 604.6 597.3 606.2 598.5 607.4C599.7 608.7 601.1 609.6 602.8 610.3C604.5 611 606.3 611.3 608.4 611.3C609.8 611.3 611 611.2 612.1 610.9C613.2 610.6 614.3 610.2 615.3 609.8V602.7H610.5C609.9 602.7 609.5 602.6 609.2 602.3C608.9 602 608.7 601.6 608.7 601.2V596.4H623.1V613.8C620.9 615.2 618.6 616.3 616.2 617Z" fill="white"/>
<path d="M666.1 575.6V582.4H648.1V593.2H662.1V599.8H648.1V610.8H666.1V617.6H639.3V575.5H666.1V575.6Z" fill="white"/>
<path d="M439.6 132.7L433.3 127.9C434.4 126.5 523.1 7.70001 523.1 7.70001L529.5 12.5C528.6 13.7 440 132.3 439.6 132.7Z" fill="white"/>
<path d="M447.839 74.8236L420.261 119.612L427.073 123.807L454.651 79.018L447.839 74.8236Z" fill="white"/>
<path d="M436.63 52.0122L406.597 112.349L413.759 115.913L443.792 55.577L436.63 52.0122Z" fill="white"/>
<path d="M420.036 35.396L392.33 106.384L399.782 109.293L427.489 38.3048L420.036 35.396Z" fill="white"/>
<path d="M407.11 -0.0670774L377.557 101.735L385.241 103.966L414.793 2.16332L407.11 -0.0670774Z" fill="white"/>
<path d="M376.512 26.3013L362.43 98.4416L370.282 99.9744L384.364 27.8341L376.512 26.3013Z" fill="white"/>
<path d="M354.106 29.4694L347.157 96.5121L355.115 97.3369L362.064 30.2942L354.106 29.4694Z" fill="white"/>
<path d="M332.345 46.0199L331.675 96.0149L339.674 96.1221L340.344 46.1271L332.345 46.0199Z" fill="white"/>
<path d="M318.407 20.9075L310.43 21.5189L316.2 96.7999L324.177 96.1886L318.407 20.9075Z" fill="white"/>
<path d="M299.216 40.2271L291.326 41.5511L300.975 99.0466L308.864 97.7226L299.216 40.2271Z" fill="white"/>
<path d="M280.523 50.6283L272.784 52.6539L285.875 102.668L293.614 100.643L280.523 50.6283Z" fill="white"/>
<path d="M254.932 38.6121L247.406 41.3233L271.264 107.556L278.79 104.844L254.932 38.6121Z" fill="white"/>
<path d="M249.725 79.0331L242.473 82.4083L257.07 113.777L264.323 110.401L249.725 79.0331Z" fill="white"/>
<path d="M228.242 78.8934L221.321 82.9046L243.533 121.233L250.454 117.222L228.242 78.8934Z" fill="white"/>
<path d="M229.444 114.122L222.91 118.738L230.757 129.847L237.292 125.231L229.444 114.122Z" fill="white"/>
<path d="M180.635 82.427L174.541 87.6102L218.728 139.565L224.822 134.382L180.635 82.427Z" fill="white"/>
<path d="M173.666 105.717L168.061 111.426L207.737 150.38L213.342 144.671L173.666 105.717Z" fill="white"/>
<path d="M142.342 106.465L137.271 112.653L197.604 162.089L202.675 155.901L142.342 106.465Z" fill="white"/>
<path d="M137.524 130.28L133.029 136.897L188.699 174.713L193.195 168.095L137.524 130.28Z" fill="white"/>
<path d="M79.8999 122.797L76.0159 129.79L180.92 188.05L184.804 181.057L79.8999 122.797Z" fill="white"/>
<path d="M138.874 177.59L135.632 184.903L174.303 202.043L177.544 194.73L138.874 177.59Z" fill="white"/>
<path d="M71.408 174.969L68.8352 182.544L169.017 216.569L171.59 208.994L71.408 174.969Z" fill="white"/>
<path d="M52.452 196.038L50.5688 203.813L164.961 231.52L166.845 223.745L52.452 196.038Z" fill="white"/>
<path d="M117.01 231.864L115.831 239.777L162.418 246.719L163.597 238.806L117.01 231.864Z" fill="white"/>
<path d="M76.223 249.187L75.7581 257.173L161.113 262.142L161.578 254.156L76.223 249.187Z" fill="white"/>
<path d="M161.056 269.573L95.8887 271.629L96.1409 279.625L161.308 277.569L161.056 269.573Z" fill="white"/>
<path d="M161.9 285.068L79.1167 295.159L80.0847 303.1L162.868 293.009L161.9 285.068Z" fill="white"/>
<path d="M164.104 300.288L114.725 310.873L116.401 318.695L165.78 308.11L164.104 300.288Z" fill="white"/>
<path d="M167.606 315.415L149.077 321.165L151.448 328.806L169.977 323.055L167.606 315.415Z" fill="white"/>
<path d="M172.472 330.037L116.349 353.152L119.395 360.548L175.519 337.434L172.472 330.037Z" fill="white"/>
<path d="M178.684 344.239L116.526 376.646L120.225 383.74L182.382 351.333L178.684 344.239Z" fill="white"/>
<path d="M186.094 357.757L116.309 402.506L120.627 409.241L190.412 364.491L186.094 357.757Z" fill="white"/>
<path d="M194.691 370.557L134.975 416.915L139.88 423.234L199.597 376.876L194.691 370.557Z" fill="white"/>
<path d="M204.43 382.678L152.173 431.33L157.624 437.185L209.881 388.534L204.43 382.678Z" fill="white"/>
<path d="M215.221 393.755L165.99 448.602L171.943 453.946L221.175 399.099L215.221 393.755Z" fill="white"/>
<path d="M227.01 403.695L186.844 457.449L193.253 462.238L233.419 408.484L227.01 403.695Z" fill="white"/>
<path d="M239.484 412.778L221.662 441.733L228.474 445.926L246.297 416.972L239.484 412.778Z" fill="white"/>
<path d="M252.881 420.637L213.169 500.399L220.331 503.965L260.042 424.202L252.881 420.637Z" fill="white"/>
<path d="M266.835 427.205L242.758 488.87L250.21 491.779L274.287 430.114L266.835 427.205Z" fill="white"/>
<path d="M281.32 432.541L269.519 473.162L277.201 475.394L289.003 434.773L281.32 432.541Z" fill="white"/>
<path d="M296.315 436.461L284.666 496.136L292.518 497.669L304.167 437.994L296.315 436.461Z" fill="white"/>
<path d="M311.552 439.145L305.18 500.618L313.138 501.443L319.509 439.97L311.552 439.145Z" fill="white"/>
<path d="M326.932 440.358L326.361 482.654L334.36 482.762L334.931 440.466L326.932 440.358Z" fill="white"/>
<path d="M350.356 439.701L342.38 440.313L347.468 506.72L355.445 506.108L350.356 439.701Z" fill="white"/>
<path d="M365.67 437.39L357.781 438.714L371.319 519.385L379.208 518.061L365.67 437.39Z" fill="white"/>
<path d="M380.712 433.889L372.973 435.915L401.078 543.296L408.818 541.27L380.712 433.889Z" fill="white"/>
<path d="M395.297 428.909L387.771 431.621L404.517 478.097L412.044 475.385L395.297 428.909Z" fill="white"/>
<path d="M409.481 422.708L402.229 426.084L430.496 486.826L437.749 483.451L409.481 422.708Z" fill="white"/>
<path d="M423.014 415.273L416.093 419.285L481.99 532.973L488.911 528.961L423.014 415.273Z" fill="white"/>
<path d="M435.852 406.628L429.318 411.244L471.901 471.517L478.435 466.901L435.852 406.628Z" fill="white"/>
<path d="M445.9 407.1L441.7 402.1L447.8 396.9L452 401.9L445.9 407.1Z" fill="white"/>
<path d="M458.941 386.112L453.337 391.821L503.36 440.933L508.965 435.224L458.941 386.112Z" fill="white"/>
<path d="M468.971 374.39L463.9 380.578L506.056 415.12L511.126 408.932L468.971 374.39Z" fill="white"/>
<path d="M477.942 361.845L473.447 368.462L527.959 405.492L532.454 398.874L477.942 361.845Z" fill="white"/>
<path d="M485.739 348.496L481.855 355.49L524.953 379.425L528.837 372.432L485.739 348.496Z" fill="white"/>
<path d="M492.347 334.451L489.105 341.765L574.034 379.408L577.276 372.094L492.347 334.451Z" fill="white"/>
<path d="M497.625 319.964L495.053 327.539L515.885 334.612L518.457 327.037L497.625 319.964Z" fill="white"/>
<path d="M580.5 332.3C580.5 332.3 502 313.3 499.7 312.7L501.6 305C502 305.1 582.4 324.6 582.4 324.6L580.5 332.3Z" fill="white"/>
<path d="M504.131 289.709L502.953 297.621L568.134 307.328L569.313 299.416L504.131 289.709Z" fill="white"/>
<path d="M505.462 274.329L504.997 282.315L561.102 285.583L561.567 277.597L505.462 274.329Z" fill="white"/>
<path d="M547.062 257.541L505.283 258.863L505.536 266.859L547.315 265.537L547.062 257.541Z" fill="white"/>
<path d="M539.809 239.145L503.774 243.537L504.742 251.479L540.777 247.086L539.809 239.145Z" fill="white"/>
<path d="M552.568 217.24L500.842 228.323L502.518 236.145L554.244 225.063L552.568 217.24Z" fill="white"/>
<path d="M520.434 206.088L496.559 213.501L498.931 221.141L522.806 213.728L520.434 206.088Z" fill="white"/>
<path d="M524.42 185.347L491.038 199.09L494.084 206.487L527.466 192.744L524.42 185.347Z" fill="white"/>
<path d="M556.929 147.314L484.211 185.215L487.909 192.309L560.626 154.409L556.929 147.314Z" fill="white"/>
<path d="M564.463 115.417L476.158 172.042L480.476 178.776L568.781 122.151L564.463 115.417Z" fill="white"/>
<path d="M485.814 144.912L466.933 159.565L471.837 165.885L490.718 151.232L485.814 144.912Z" fill="white"/>
<path d="M462.1 153.9L456.7 148C458 146.8 470 135.6 470 135.6L475.4 141.4C475.4 141.5 462.4 153.6 462.1 153.9Z" fill="white"/>
<path d="M535.72 36.7646L445.366 137.468L451.321 142.811L541.674 42.107L535.72 36.7646Z" fill="white"/>
<path d="M395.182 182.236L393.385 184.639L396.589 187.034L398.385 184.631L395.182 182.236Z" fill="white"/>
<path d="M387.24 177.081L371.986 201.862L375.392 203.959L390.646 179.178L387.24 177.081Z" fill="white"/>
<path d="M378.813 172.561L367.361 195.57L370.942 197.353L382.394 174.344L378.813 172.561Z" fill="white"/>
<path d="M370.008 168.912L361.396 190.991L365.122 192.444L373.734 170.365L370.008 168.912Z" fill="white"/>
<path d="M360.978 165.987L356.851 180.201L360.693 181.316L364.819 167.102L360.978 165.987Z" fill="white"/>
<path d="M351.678 163.83L347.082 187.386L351.008 188.152L355.604 164.596L351.678 163.83Z" fill="white"/>
<path d="M342.344 162.566L339.704 188.03L343.683 188.442L346.323 162.978L342.344 162.566Z" fill="white"/>
<path d="M332.797 162.291L332.396 192.588L336.396 192.641L336.796 162.344L332.797 162.291Z" fill="white"/>
<path d="M327.197 162.389L323.209 162.695L325.013 186.227L329.001 185.921L327.197 162.389Z" fill="white"/>
<path d="M317.751 163.36L313.806 164.021L318.421 191.536L322.366 190.875L317.751 163.36Z" fill="white"/>
<path d="M308.433 165.182L304.563 166.194L312.134 195.12L316.004 194.107L308.433 165.182Z" fill="white"/>
<path d="M299.251 167.847L295.488 169.203L303.723 192.065L307.487 190.709L299.251 167.847Z" fill="white"/>
<path d="M290.346 171.294L286.719 172.982L301.401 204.531L305.028 202.844L290.346 171.294Z" fill="white"/>
<path d="M281.871 175.621L278.41 177.627L294.809 205.919L298.27 203.913L281.871 175.621Z" fill="white"/>
<path d="M273.736 180.526L270.469 182.834L294.183 216.4L297.45 214.092L273.736 180.526Z" fill="white"/>
<path d="M266.113 186.246L263.065 188.837L279.455 208.111L282.502 205.52L266.113 186.246Z" fill="white"/>
<path d="M259.045 192.61L256.243 195.464L277.006 215.852L279.808 212.998L259.045 192.61Z" fill="white"/>
<path d="M252.558 199.595L250.023 202.689L267.891 217.33L270.426 214.236L252.558 199.595Z" fill="white"/>
<path d="M246.766 207.074L244.518 210.383L265.942 224.939L268.19 221.63L246.766 207.074Z" fill="white"/>
<path d="M241.572 215.094L239.63 218.591L249.683 224.174L251.625 220.677L241.572 215.094Z" fill="white"/>
<path d="M237.132 223.487L235.512 227.144L266.049 240.674L267.67 237.017L237.132 223.487Z" fill="white"/>
<path d="M233.461 232.326L232.175 236.114L246.852 241.097L248.138 237.309L233.461 232.326Z" fill="white"/>
<path d="M241.4 248.1C241.4 248.1 230 245.3 229.8 245.3L230.7 241.4C232 241.7 242.4 244.2 242.4 244.2L241.4 248.1Z" fill="white"/>
<path d="M228.666 250.652L228.077 254.609L259.827 259.337L260.416 255.381L228.666 250.652Z" fill="white"/>
<path d="M227.508 260.118L227.276 264.111L248.34 265.336L248.572 261.343L227.508 260.118Z" fill="white"/>
<path d="M253.73 268.882L227.243 269.713L227.369 273.711L253.855 272.88L253.73 268.882Z" fill="white"/>
<path d="M249.396 276.61L227.755 279.248L228.239 283.218L249.88 280.581L249.396 276.61Z" fill="white"/>
<path d="M259.054 282.233L229.134 288.644L229.972 292.555L259.892 286.144L259.054 282.233Z" fill="white"/>
<path d="M268.733 286.291L231.392 297.888L232.578 301.708L269.919 290.111L268.733 286.291Z" fill="white"/>
<path d="M260.199 296.25L234.4 306.875L235.923 310.573L261.722 299.949L260.199 296.25Z" fill="white"/>
<path d="M260.739 303.903L238.301 315.592L240.149 319.139L262.587 307.451L260.739 303.903Z" fill="white"/>
<path d="M261.128 312.253L242.948 323.915L245.107 327.282L263.288 315.62L261.128 312.253Z" fill="white"/>
<path d="M267.235 317.015L248.275 331.729L250.727 334.889L269.687 320.175L267.235 317.015Z" fill="white"/>
<path d="M272.727 321.964L254.278 339.13L257.003 342.058L275.452 324.892L272.727 321.964Z" fill="white"/>
<path d="M277.501 327.515L260.939 345.974L263.917 348.645L280.478 330.186L277.501 327.515Z" fill="white"/>
<path d="M283.82 331.201L268.207 352.115L271.412 354.508L287.025 333.594L283.82 331.201Z" fill="white"/>
<path d="M294.148 328.108L275.955 357.655L279.361 359.752L297.554 330.205L294.148 328.108Z" fill="white"/>
<path d="M293.235 344.32L284.232 362.404L287.812 364.186L296.816 346.103L293.235 344.32Z" fill="white"/>
<path d="M302.381 342.002L292.844 366.405L296.57 367.861L306.106 343.458L302.381 342.002Z" fill="white"/>
<path d="M310.975 337.834L301.719 369.716L305.56 370.831L314.816 338.949L310.975 337.834Z" fill="white"/>
<path d="M316.454 344.127L310.997 372.1L314.923 372.866L320.38 344.893L316.454 344.127Z" fill="white"/>
<path d="M323.265 346.009L320.404 373.662L324.383 374.073L327.243 346.42L323.265 346.009Z" fill="white"/>
<path d="M330.325 341.14L329.879 374.437L333.879 374.49L334.325 341.194L330.325 341.14Z" fill="white"/>
<path d="M341.398 347.79L337.409 348.095L339.417 374.319L343.406 374.014L341.398 347.79Z" fill="white"/>
<path d="M349.169 351.095L345.224 351.757L348.83 373.256L352.775 372.595L349.169 351.095Z" fill="white"/>
<path d="M358.35 356.218L354.48 357.23L358.226 371.548L362.095 370.535L358.35 356.218Z" fill="white"/>
<path d="M360.702 338.711L356.939 340.067L367.309 368.855L371.073 367.5L360.702 338.711Z" fill="white"/>
<path d="M369.014 340.458L365.387 342.145L376.227 365.448L379.854 363.76L369.014 340.458Z" fill="white"/>
<path d="M384.206 352.219L380.745 354.225L384.756 361.146L388.217 359.141L384.206 352.219Z" fill="white"/>
<path d="M382.371 334.402L379.104 336.71L392.892 356.231L396.159 353.924L382.371 334.402Z" fill="white"/>
<path d="M375.724 315.224L372.677 317.815L400.468 350.496L403.515 347.905L375.724 315.224Z" fill="white"/>
<path d="M392.782 323.945L389.98 326.799L407.606 344.104L410.408 341.25L392.782 323.945Z" fill="white"/>
<path d="M394.171 315.653L391.635 318.747L414.144 337.194L416.679 334.1L394.171 315.653Z" fill="white"/>
<path d="M400.935 311.969L398.687 315.277L419.864 329.662L422.111 326.353L400.935 311.969Z" fill="white"/>
<path d="M400.167 303.284L398.224 306.781L425.062 321.689L427.005 318.192L400.167 303.284Z" fill="white"/>
<path d="M413.623 301.877L412.002 305.534L429.463 313.273L431.084 309.616L413.623 301.877Z" fill="white"/>
<path d="M397.705 288.208L396.417 291.995L433.059 304.449L434.346 300.661L397.705 288.208Z" fill="white"/>
<path d="M416.307 286.441L415.365 290.329L435.969 295.323L436.912 291.436L416.307 286.441Z" fill="white"/>
<path d="M412.945 278.222L412.354 282.178L437.871 285.986L438.461 282.03L412.945 278.222Z" fill="white"/>
<path d="M411.25 270.905L411.017 274.898L439.169 276.539L439.402 272.545L411.25 270.905Z" fill="white"/>
<path d="M439.324 263.084L406.44 264.108L406.565 268.106L439.449 267.082L439.324 263.084Z" fill="white"/>
<path d="M438.452 253.564L404.7 257.678L405.184 261.649L438.936 257.535L438.452 253.564Z" fill="white"/>
<path d="M436.53 244.24L407.293 250.501L408.131 254.412L437.367 248.151L436.53 244.24Z" fill="white"/>
<path d="M434.09 235.088L398.561 246.114L399.746 249.934L435.276 238.908L434.09 235.088Z" fill="white"/>
<path d="M430.651 226.151L399.023 239.164L400.545 242.863L432.173 229.85L430.651 226.151Z" fill="white"/>
<path d="M427.4 219.4L428.3 221.2C428.1 221.3 408.8 231.3 408.8 231.3L407 227.8L426.5 217.7L427.4 219.4Z" fill="white"/>
<path d="M421.562 209.502L409.018 217.542L411.176 220.909L423.72 212.869L421.562 209.502Z" fill="white"/>
<path d="M415.938 201.739L385.681 225.221L388.134 228.381L418.391 204.899L415.938 201.739Z" fill="white"/>
<path d="M409.629 194.674L380.939 221.389L383.665 224.316L412.355 197.601L409.629 194.674Z" fill="white"/>
<path d="M402.786 188.031L398.31 193.017L401.286 195.689L405.762 190.704L402.786 188.031Z" fill="white"/>
</g>
<defs>
<clipPath id="clip0">
<rect width="666" height="686.3" fill="white"/>
</clipPath>
</defs>
</svg>
