<svg xmlns="http://www.w3.org/2000/svg" viewBox="0 0 432.01 343.99"><defs><style>.a{fill:#69b93b;}.b{fill:#da2e29;}</style></defs><title>small-full-rgb</title><rect class="a" x="250.65" y="30.99" width="64.66" height="7.81" transform="translate(85.66 240.7) rotate(-53.24)"/><rect class="a" x="242.86" y="35.47" width="31.15" height="7.81" transform="translate(108.01 253.17) rotate(-63.53)"/><rect class="a" x="220.55" y="20.7" width="48.97" height="7.81" transform="matrix(0.28, -0.96, 0.96, 0.28, 153.1, 253.07)"/><rect class="a" x="210.25" y="25.98" width="31.14" height="7.81" transform="translate(172.82 251.42) rotate(-84.09)"/><rect class="a" x="204.71" y="10.34" width="7.81" height="34.89" transform="translate(-1.51 16.03) rotate(-4.38)"/><rect class="a" x="188.95" y="24.04" width="7.81" height="23.88" transform="translate(-2.83 50) rotate(-14.67)"/><rect class="a" x="175.18" y="37.1" width="7.81" height="16.01" transform="translate(-2.31 79.78) rotate(-24.96)"/><rect class="a" x="164.4" y="53.8" width="7.81" height="6.28" transform="translate(-2.03 107.5) rotate(-35.22)"/><rect class="a" x="146.18" y="46.91" width="7.81" height="25.67" transform="translate(2.3 124.98) rotate(-45.52)"/><polygon class="a" points="148 83 119.66 63.56 124.05 57.1 152.4 76.54 148 83"/><rect class="a" x="130.44" y="78.52" width="7.81" height="19.52" transform="translate(-0.8 175.33) rotate(-66.1)"/><rect class="a" x="108.34" y="72.14" width="7.81" height="54.4" transform="translate(-10.73 185.03) rotate(-76.38)"/><rect class="a" x="112.94" y="98.94" width="7.81" height="39.51" transform="translate(-8.44 228.44) rotate(-86.67)"/><rect class="a" x="98.64" y="132.53" width="38.51" height="7.81" transform="translate(-15.63 15.25) rotate(-6.94)"/><rect class="a" x="131.24" y="145.47" width="8.95" height="7.81" transform="translate(-38.17 46.93) rotate(-17.24)"/><rect class="a" x="114.85" y="164.82" width="32.4" height="7.81" transform="translate(-63.13 79.64) rotate(-27.52)"/><rect class="a" x="121.84" y="180.05" width="34.93" height="7.81" transform="translate(-83.52 124.02) rotate(-37.81)"/><rect class="a" x="134.43" y="192.46" width="34.05" height="7.81" transform="translate(-95.85 177.98) rotate(-48.11)"/><rect class="a" x="162.27" y="195.02" width="15.72" height="7.81" transform="translate(-88.46 239.52) rotate(-58.38)"/><rect class="a" x="166.14" y="208.95" width="30.6" height="7.81" transform="translate(-82.84 304.4) rotate(-68.66)"/><rect class="a" x="183.97" y="212.46" width="28.08" height="7.81" transform="translate(-52.28 369.27) rotate(-78.96)"/><rect class="a" x="204.99" y="209.92" width="19.53" height="7.81" transform="translate(-1.93 425.7) rotate(-89.23)"/><rect class="a" x="228.33" y="202.72" width="7.81" height="37.77" transform="translate(-33.47 41.5) rotate(-9.53)"/><rect class="a" x="242.88" y="198.7" width="7.81" height="22.82" transform="translate(-56.6 96.05) rotate(-19.81)"/><polygon class="a" points="252.47 195.32 280.8 243.64 287.56 239.72 259.23 191.4 252.47 195.32"/><polygon class="a" points="269 192.27 264.68 187.84 270.32 182.44 274.64 186.87 269 192.27"/><rect class="a" x="283.33" y="170.36" width="7.81" height="25.18" transform="translate(-36.32 289.18) rotate(-50.67)"/><rect class="a" x="291.56" y="157.32" width="7.81" height="22.75" transform="translate(4.54 345.11) rotate(-60.96)"/><rect class="a" x="292.2" y="146.69" width="7.81" height="10.15" transform="translate(57.2 383.36) rotate(-71.25)"/><rect class="a" x="305.82" y="123.3" width="7.81" height="30.43" transform="translate(127.09 424.45) rotate(-81.53)"/><rect class="a" x="295.5" y="117.82" width="19.33" height="7.81" transform="matrix(1, -0.03, 0.03, 1, -3.7, 9.72)"/><rect class="a" x="293.52" y="101.41" width="24.43" height="7.81" transform="translate(-15.27 66.35) rotate(-12.09)"/><rect class="a" x="288.94" y="87.17" width="16.66" height="7.81" transform="translate(-12.28 120.08) rotate(-22.39)"/><rect class="a" x="279.15" y="64.61" width="48.45" height="7.81" transform="translate(11 174.57) rotate(-32.66)"/><rect class="a" x="273.12" y="63.55" width="8.42" height="7.81" transform="translate(28.4 207.08) rotate(-42.96)"/><polygon class="b" points="244.79 88.99 241.8 86.48 243.85 84.05 246.85 86.56 245.4 88.29 244.79 88.99"/><rect class="b" x="229.27" y="84.06" width="11.88" height="3.9" transform="translate(53.43 258.29) rotate(-63.55)"/><rect class="b" x="225.3" y="78.83" width="6.86" height="3.9" transform="translate(87.45 277.98) rotate(-73.83)"/><rect class="b" x="214.55" y="79.73" width="11.81" height="3.91" transform="translate(116.6 292.6) rotate(-84.12)"/><rect class="b" x="210.74" y="75.67" width="3.91" height="10.9" transform="translate(-5.58 16.49) rotate(-4.38)"/><rect class="b" x="203.4" y="76.92" width="3.91" height="13.81" transform="translate(-14.53 54.75) rotate(-14.67)"/><rect class="b" x="196.78" y="79.37" width="3.91" height="16.07" transform="translate(-18.32 92) rotate(-24.95)"/><polygon class="b" points="198.05 102.67 186.14 85.65 189.33 83.39 201.24 100.42 198.05 102.67"/><rect class="b" x="183.88" y="88.2" width="3.91" height="13.43" transform="translate(-12.1 161) rotate(-45.52)"/><rect class="b" x="178.46" y="94.38" width="3.9" height="11.96" transform="translate(-3.99 193.19) rotate(-55.81)"/><rect class="b" x="176.3" y="100.1" width="3.91" height="15.42" transform="translate(7.46 227.08) rotate(-66.09)"/><rect class="b" x="169.11" y="110.88" width="3.91" height="5.54" transform="translate(20.32 253.14) rotate(-76.38)"/><rect class="b" x="169.99" y="117.1" width="3.9" height="9.76" transform="translate(40.2 286.56) rotate(-86.68)"/><rect class="b" x="167.31" y="127.91" width="10.07" height="3.91" transform="translate(-14.46 21.82) rotate(-6.95)"/><polygon class="b" points="169.76 140.93 168.6 137.21 187.54 131.4 188.7 135.13 169.76 140.93"/><rect class="b" x="171.86" y="142.54" width="11.7" height="3.91" transform="translate(-46.68 98.61) rotate(-27.56)"/><rect class="b" x="176.1" y="149.24" width="11.08" height="3.91" transform="translate(-54.55 142.99) rotate(-37.78)"/><rect class="b" x="181.35" y="154.81" width="11.45" height="3.9" transform="translate(-54.54 191.29) rotate(-48.09)"/><rect class="b" x="186.47" y="157.5" width="16.05" height="3.91" transform="translate(-43.23 241.54) rotate(-58.4)"/><rect class="b" x="194.31" y="162.63" width="12.09" height="3.91" transform="translate(-25.79 291.41) rotate(-68.69)"/><rect class="b" x="201.26" y="164.24" width="13.19" height="3.91" transform="translate(4.87 338.31) rotate(-78.94)"/><rect class="b" x="207.73" y="163.92" width="15.4" height="3.91" transform="translate(46.73 379.09) rotate(-89.24)"/><rect class="b" x="221.31" y="162.88" width="3.9" height="10.09" transform="translate(-24.7 39.23) rotate(-9.52)"/><rect class="b" x="228.12" y="156.28" width="3.91" height="14.84" transform="translate(-41.9 87.81) rotate(-19.84)"/><rect class="b" x="237.69" y="163.53" width="3.91" height="3.69" transform="translate(-50.61 142.35) rotate(-30.07)"/><polygon class="b" points="246.25 163.17 232.3 146.82 235.28 144.29 249.23 160.64 246.25 163.17"/><rect class="b" x="246.75" y="144.65" width="3.9" height="13.45" transform="translate(-26.02 247.78) rotate(-50.67)"/><rect class="b" x="250.7" y="137.85" width="3.91" height="14.17" transform="translate(3.26 295.4) rotate(-60.95)"/><polygon class="b" points="261.77 142.19 244.34 136.19 245.6 132.49 263.03 138.49 261.77 142.19"/><rect class="b" x="256.62" y="124.95" width="3.91" height="11.93" transform="translate(90.89 367.32) rotate(-81.5)"/><rect class="b" x="249.81" y="121.32" width="15.18" height="3.9" transform="translate(-3.79 8.26) rotate(-1.82)"/><rect class="b" x="250.25" y="113.8" width="13.83" height="3.91" transform="translate(-18.55 56.49) rotate(-12.1)"/><rect class="b" x="246.1" y="106.97" width="15.82" height="3.9" transform="translate(-22.34 104.84) rotate(-22.36)"/><rect class="b" x="250.94" y="98.02" width="6.88" height="3.91" transform="translate(-13.74 153.05) rotate(-32.65)"/><rect class="b" x="235.81" y="95.54" width="18.56" height="3.91" transform="translate(-0.73 193.12) rotate(-42.95)"/><path class="a" d="M28,285.82a15,15,0,0,1-1,5.55,12.82,12.82,0,0,1-7.25,7.35A14.86,14.86,0,0,1,14,299.78a14.86,14.86,0,0,1-5.72-1.06,13.23,13.23,0,0,1-4.42-2.92A12.93,12.93,0,0,1,1,291.37a15.78,15.78,0,0,1,0-11.09,13,13,0,0,1,2.85-4.41,13.23,13.23,0,0,1,4.42-2.93A14.87,14.87,0,0,1,14,271.88a14.87,14.87,0,0,1,5.72,1.06A12.87,12.87,0,0,1,27,280.3,14.9,14.9,0,0,1,28,285.82Zm-5.78,0a12.19,12.19,0,0,0-.56-3.85,8.15,8.15,0,0,0-1.63-2.9,7,7,0,0,0-2.58-1.82,8.87,8.87,0,0,0-3.43-.63,8.94,8.94,0,0,0-3.44.63A7,7,0,0,0,8,279.08,8.15,8.15,0,0,0,6.34,282a13.46,13.46,0,0,0,0,7.71A8.06,8.06,0,0,0,8,292.58a7,7,0,0,0,2.59,1.81A8.93,8.93,0,0,0,14,295a8.86,8.86,0,0,0,3.43-.63A7,7,0,0,0,20,292.58a8.06,8.06,0,0,0,1.63-2.89A12.25,12.25,0,0,0,22.2,285.82Z"/><path class="a" d="M43.7,290.09v9.39H38.05V272.18h9.22a15.87,15.87,0,0,1,4.84.66,9.23,9.23,0,0,1,3.36,1.83,7.21,7.21,0,0,1,1.95,2.79,9.61,9.61,0,0,1,.63,3.52,10,10,0,0,1-.66,3.69,7.54,7.54,0,0,1-2,2.88A9.28,9.28,0,0,1,52,289.42a15.27,15.27,0,0,1-4.76.67H43.7Zm0-4.33h3.57a5.18,5.18,0,0,0,3.88-1.28,4.83,4.83,0,0,0,1.23-3.5,5.29,5.29,0,0,0-.31-1.85,3.69,3.69,0,0,0-.94-1.43,4.23,4.23,0,0,0-1.59-.91,7.22,7.22,0,0,0-2.28-.32H43.7v9.29Z"/><path class="a" d="M85,272.18v4.42H73.27v7h9.1v4.27h-9.1v7.17H85v4.42H67.59V272.18H85Z"/><path class="a" d="M98.71,272.21a1.35,1.35,0,0,1,.46.13,1.79,1.79,0,0,1,.4.27,3.8,3.8,0,0,1,.41.45l13.69,17.4q-0.08-.72-0.11-1.39t0-1.28V272.18h5v27.29h-2.92a2.55,2.55,0,0,1-1.11-.22,2.68,2.68,0,0,1-.88-0.74L100,281.23q0.06,0.66.08,1.29t0,1.18v15.78h-5V272.18h3A5.59,5.59,0,0,1,98.71,272.21Z"/><path class="a" d="M150.69,283.45h1.11a2.31,2.31,0,0,0,2-.87l6.9-9.24a2.72,2.72,0,0,1,1.07-.91,3.58,3.58,0,0,1,1.43-.25h4.89l-8.69,11.19a5.52,5.52,0,0,1-1.75,1.56,4.61,4.61,0,0,1,1.19.69,5.43,5.43,0,0,1,1,1.12l8.92,12.73h-5a4,4,0,0,1-.84-0.08,2.59,2.59,0,0,1-.61-0.21,1.61,1.61,0,0,1-.45-0.33,3.05,3.05,0,0,1-.36-0.46l-7-9.82a2.06,2.06,0,0,0-.85-0.72,3.49,3.49,0,0,0-1.37-.22h-1.58v11.83H145V272.18h5.64v11.27Z"/><path class="a" d="M180.72,272.21a1.35,1.35,0,0,1,.46.13,1.79,1.79,0,0,1,.4.27,3.8,3.8,0,0,1,.41.45l13.69,17.4q-0.08-.72-0.11-1.39t0-1.28V272.18h5v27.29h-2.92a2.55,2.55,0,0,1-1.11-.22,2.68,2.68,0,0,1-.88-0.74L182,281.23q0.06,0.66.08,1.29t0,1.18v15.78h-5V272.18h3A5.59,5.59,0,0,1,180.72,272.21Z"/><path class="a" d="M238.56,285.82a15,15,0,0,1-1,5.55,12.82,12.82,0,0,1-7.25,7.35,15.91,15.91,0,0,1-11.44,0,13.23,13.23,0,0,1-4.42-2.92,12.93,12.93,0,0,1-2.85-4.42,15.78,15.78,0,0,1,0-11.09,13,13,0,0,1,2.85-4.41,13.23,13.23,0,0,1,4.42-2.93,15.91,15.91,0,0,1,11.44,0,12.87,12.87,0,0,1,7.25,7.35A14.9,14.9,0,0,1,238.56,285.82Zm-5.78,0a12.19,12.19,0,0,0-.56-3.85,8.15,8.15,0,0,0-1.63-2.9,7,7,0,0,0-2.58-1.82,9.69,9.69,0,0,0-6.88,0,7,7,0,0,0-2.59,1.82,8.15,8.15,0,0,0-1.63,2.9,13.46,13.46,0,0,0,0,7.71,8.06,8.06,0,0,0,1.63,2.89,7,7,0,0,0,2.59,1.81,9.69,9.69,0,0,0,6.88,0,7,7,0,0,0,2.58-1.81,8.06,8.06,0,0,0,1.63-2.89A12.25,12.25,0,0,0,232.78,285.82Z"/><path class="a" d="M245.35,272.18h4.74a2.14,2.14,0,0,1,1.23.34,1.55,1.55,0,0,1,.65.9l4.23,15.39q0.15,0.66.31,1.39t0.31,1.56q0.17-.83.36-1.57t0.41-1.38l4.93-15.39a1.79,1.79,0,0,1,.65-0.86,1.92,1.92,0,0,1,1.21-.39H266a1.93,1.93,0,0,1,1.19.35,2.11,2.11,0,0,1,.69.89l4.91,15.39q0.21,0.6.4,1.32t0.35,1.51q0.15-.79.3-1.51t0.3-1.32l4.23-15.39a1.6,1.6,0,0,1,.64-0.87,2,2,0,0,1,1.22-.38h4.44l-8.46,27.29h-5.1l-5.59-17.85a7.45,7.45,0,0,1-.27-0.83q-0.12-.45-0.24-0.94l-0.25.94q-0.12.45-.25,0.83l-5.64,17.85h-5.12Z"/><path class="a" d="M299.37,294.89h10.55v4.59h-16.2V272.18h5.64v22.7Z"/><path class="a" d="M336.69,272.18v4.42H325v7h9.1v4.27H325v7.17h11.7v4.42H319.31V272.18h17.38Z"/><path class="a" d="M371.32,285.82a14.68,14.68,0,0,1-1,5.5,12.51,12.51,0,0,1-2.84,4.32,13,13,0,0,1-4.41,2.82,15.48,15.48,0,0,1-5.72,1h-10.5V272.18h10.5a15.48,15.48,0,0,1,5.72,1,12.92,12.92,0,0,1,4.41,2.83,12.63,12.63,0,0,1,2.84,4.32A14.55,14.55,0,0,1,371.32,285.82Zm-5.79,0A12.28,12.28,0,0,0,365,282a8.13,8.13,0,0,0-1.62-2.9,7.07,7.07,0,0,0-2.57-1.82,8.77,8.77,0,0,0-3.43-.64h-4.82v18.45h4.82a8.87,8.87,0,0,0,3.43-.63,6.91,6.91,0,0,0,2.57-1.82A8.22,8.22,0,0,0,365,289.7,12.34,12.34,0,0,0,365.53,285.82Z"/><path class="a" d="M399.63,299.07a17.37,17.37,0,0,1-5,.71,16.93,16.93,0,0,1-6.09-1,13.71,13.71,0,0,1-4.67-2.91,12.82,12.82,0,0,1-3-4.42,14.53,14.53,0,0,1-1.05-5.59,15.24,15.24,0,0,1,1-5.62,12.6,12.6,0,0,1,2.87-4.4,13.11,13.11,0,0,1,4.51-2.88,16.12,16.12,0,0,1,5.92-1,17.31,17.31,0,0,1,3.16.27,15.28,15.28,0,0,1,2.71.75,12.8,12.8,0,0,1,4.16,2.59L402.51,278a1.52,1.52,0,0,1-1,.73,1.79,1.79,0,0,1-1.32-.3q-0.68-.41-1.33-0.74a10.23,10.23,0,0,0-1.38-.57,9.7,9.7,0,0,0-1.6-.38,13.44,13.44,0,0,0-2-.13,8.68,8.68,0,0,0-3.44.66,7.36,7.36,0,0,0-2.62,1.86,8.32,8.32,0,0,0-1.66,2.9,11.55,11.55,0,0,0-.58,3.78,11.87,11.87,0,0,0,.64,4,8.4,8.4,0,0,0,1.81,3,7.69,7.69,0,0,0,2.79,1.86,10.67,10.67,0,0,0,6,.37,12.1,12.1,0,0,0,2.08-.74v-4.59h-3.08a1.2,1.2,0,0,1-.86-0.29,1,1,0,0,1-.31-0.74v-3.14h9.37v11.27A14.63,14.63,0,0,1,399.63,299.07Z"/><path class="a" d="M432,272.18v4.42h-11.7v7h9.1v4.27h-9.1v7.17H432v4.42H414.63V272.18H432Z"/><path class="a" d="M47.08,343.72H43.62V318.16h3.46v25.56Z"/><path class="a" d="M62,318.28a1.78,1.78,0,0,1,.51.47L77.35,338q-0.05-.46-0.07-0.9t0-.85V318.16h3v25.56H78.55a1.49,1.49,0,0,1-.69-0.14,1.74,1.74,0,0,1-.54-0.48L62.53,323.85q0,0.45.05,0.87t0,0.78v18.21h-3V318.16h1.78A1.55,1.55,0,0,1,62,318.28Z"/><path class="a" d="M109.58,318.16v2.91h-8.26v22.65H97.86V321.07h-8.3v-2.91h20Z"/><path class="a" d="M134.61,318.16V321H122.34v8.49h9.94v2.71h-9.94v8.72h12.27v2.82H118.86V318.16h15.75Z"/><path class="a" d="M149,333.06v10.67h-3.44V318.16h7.22a15.79,15.79,0,0,1,4.19.49,8,8,0,0,1,2.92,1.42,5.68,5.68,0,0,1,1.7,2.24,7.48,7.48,0,0,1,.55,2.93,7.35,7.35,0,0,1-.43,2.53,6.7,6.7,0,0,1-1.24,2.11,7.42,7.42,0,0,1-2,1.6,9.78,9.78,0,0,1-2.65,1,3.66,3.66,0,0,1,1.14,1.09l7.46,10.15H161.4A1.51,1.51,0,0,1,160,343l-6.64-9.13a1.93,1.93,0,0,0-.66-0.62,2.38,2.38,0,0,0-1.07-.19H149Zm0-2.51h3.62a8.81,8.81,0,0,0,2.67-.37,5.42,5.42,0,0,0,1.93-1,4.3,4.3,0,0,0,1.17-1.6,5.21,5.21,0,0,0,.39-2.05,4.07,4.07,0,0,0-1.51-3.44,7.28,7.28,0,0,0-4.49-1.16H149v9.65Z"/><path class="a" d="M176.31,318.28a1.78,1.78,0,0,1,.51.47L191.62,338q-0.05-.46-0.07-0.9t0-.85V318.16h3v25.56h-1.75a1.49,1.49,0,0,1-.69-0.14,1.74,1.74,0,0,1-.54-0.48L176.8,323.85q0,0.45.05,0.87t0,0.78v18.21h-3V318.16h1.78A1.55,1.55,0,0,1,176.31,318.28Z"/><path class="a" d="M227.47,343.72H224.8a1.15,1.15,0,0,1-.75-0.23,1.42,1.42,0,0,1-.43-0.59l-2.39-6.17H209.76l-2.39,6.17a1.39,1.39,0,0,1-.43.57,1.14,1.14,0,0,1-.75.25h-2.68l10.22-25.56h3.51Zm-16.75-9.49h9.54l-4-10.4a19.41,19.41,0,0,1-.77-2.41q-0.2.73-.38,1.35t-0.37,1.08Z"/><path class="a" d="M251.39,318.16v2.91h-8.26v22.65h-3.46V321.07h-8.3v-2.91h20Z"/><path class="a" d="M264.77,343.72h-3.46V318.16h3.46v25.56Z"/><path class="a" d="M301,331a14.76,14.76,0,0,1-.91,5.27,12.08,12.08,0,0,1-2.57,4.13,11.48,11.48,0,0,1-4,2.68,14.33,14.33,0,0,1-10.28,0,11.49,11.49,0,0,1-4-2.68,12.07,12.07,0,0,1-2.57-4.13,15.73,15.73,0,0,1,0-10.54,12.16,12.16,0,0,1,2.57-4.14,11.55,11.55,0,0,1,4-2.7,14.2,14.2,0,0,1,10.28,0,11.53,11.53,0,0,1,4,2.7,12.17,12.17,0,0,1,2.57,4.14A14.76,14.76,0,0,1,301,331Zm-3.55,0a13,13,0,0,0-.64-4.23,8.94,8.94,0,0,0-1.82-3.17,7.89,7.89,0,0,0-2.85-2,10.39,10.39,0,0,0-7.47,0,8,8,0,0,0-2.86,2,8.86,8.86,0,0,0-1.83,3.17,14.2,14.2,0,0,0,0,8.45,8.88,8.88,0,0,0,1.83,3.16,7.87,7.87,0,0,0,2.86,2,10.5,10.5,0,0,0,7.47,0,7.79,7.79,0,0,0,2.85-2,9,9,0,0,0,1.82-3.16A12.9,12.9,0,0,0,297.45,331Z"/><path class="a" d="M313.84,318.28a1.78,1.78,0,0,1,.51.47L329.15,338q-0.05-.46-0.07-0.9t0-.85V318.16h3v25.56h-1.75a1.49,1.49,0,0,1-.69-0.14,1.74,1.74,0,0,1-.54-0.48l-14.79-19.25q0,0.45.05,0.87t0,0.78v18.21h-3V318.16h1.78A1.55,1.55,0,0,1,313.84,318.28Z"/><path class="a" d="M365,343.72h-2.68a1.15,1.15,0,0,1-.75-0.23,1.42,1.42,0,0,1-.43-0.59l-2.39-6.17H347.29l-2.39,6.17a1.39,1.39,0,0,1-.43.57,1.14,1.14,0,0,1-.75.25H341l10.22-25.56h3.51Zm-16.75-9.49h9.54l-4-10.4a19.41,19.41,0,0,1-.77-2.41q-0.2.73-.38,1.35t-0.37,1.08Z"/><path class="a" d="M377.33,340.81h11.06v2.91H373.87V318.16h3.46v22.65Z"/></svg>