<svg xmlns="http://www.w3.org/2000/svg" viewBox="0 0 666.01 686.27"><defs><style>.a{fill:#7ab800;}.b{fill:red;}</style></defs><title>standard-logo-rgb</title><path class="a" d="M43.12,596.6a23.17,23.17,0,0,1-1.55,8.55,19.77,19.77,0,0,1-11.18,11.32,22.91,22.91,0,0,1-8.82,1.64,22.9,22.9,0,0,1-8.82-1.64A20.4,20.4,0,0,1,5.94,612a19.93,19.93,0,0,1-4.39-6.82,24.33,24.33,0,0,1,0-17.1,20,20,0,0,1,4.39-6.8,20.4,20.4,0,0,1,6.82-4.51,22.92,22.92,0,0,1,8.82-1.64,22.93,22.93,0,0,1,8.82,1.64,19.85,19.85,0,0,1,11.18,11.34A23,23,0,0,1,43.12,596.6Zm-8.9,0a18.8,18.8,0,0,0-.87-5.93,12.56,12.56,0,0,0-2.51-4.47,10.8,10.8,0,0,0-4-2.81,13.67,13.67,0,0,0-5.29-1,13.78,13.78,0,0,0-5.31,1,10.78,10.78,0,0,0-4,2.81,12.56,12.56,0,0,0-2.51,4.47,20.74,20.74,0,0,0,0,11.89A12.43,12.43,0,0,0,12.28,607a10.84,10.84,0,0,0,4,2.8,13.76,13.76,0,0,0,5.31,1,13.65,13.65,0,0,0,5.29-1,10.87,10.87,0,0,0,4-2.8,12.43,12.43,0,0,0,2.51-4.45A18.89,18.89,0,0,0,34.22,596.6Z"/><path class="a" d="M67.37,603.18v14.47h-8.7V575.57H72.88a24.47,24.47,0,0,1,7.47,1,14.23,14.23,0,0,1,5.18,2.83,11.11,11.11,0,0,1,3,4.31,14.82,14.82,0,0,1,1,5.42,15.4,15.4,0,0,1-1,5.68,11.62,11.62,0,0,1-3.07,4.44,14.3,14.3,0,0,1-5.19,2.88,23.54,23.54,0,0,1-7.34,1H67.37Zm0-6.67h5.51q4.09,0,6-2a7.45,7.45,0,0,0,1.9-5.39,8.15,8.15,0,0,0-.48-2.86,5.69,5.69,0,0,0-1.45-2.2,6.51,6.51,0,0,0-2.45-1.41,11.13,11.13,0,0,0-3.51-.49H67.37v14.33Z"/><path class="a" d="M131,575.57v6.82H113v10.82h14v6.58H113v11h18v6.82H104.2V575.57H131Z"/><path class="a" d="M152.18,575.62a2.07,2.07,0,0,1,.71.2,2.75,2.75,0,0,1,.61.42,5.86,5.86,0,0,1,.64.7l21.11,26.83q-0.12-1.1-.17-2.15t-0.06-2V575.57h7.69v42.08h-4.5a3.94,3.94,0,0,1-1.71-.33,4.13,4.13,0,0,1-1.36-1.14l-21-26.65q0.09,1,.13,2t0,1.81v24.33h-7.68V575.57h4.58A8.61,8.61,0,0,1,152.18,575.62Z"/><path class="a" d="M232.32,592.94H234a3.55,3.55,0,0,0,3.1-1.33l10.64-14.24a4.19,4.19,0,0,1,1.65-1.41,5.52,5.52,0,0,1,2.2-.39h7.54l-13.4,17.25a8.51,8.51,0,0,1-2.7,2.41,7.1,7.1,0,0,1,1.83,1.06,8.37,8.37,0,0,1,1.57,1.73l13.75,19.63h-7.74a6.13,6.13,0,0,1-1.29-.12,4,4,0,0,1-.94-0.32,2.48,2.48,0,0,1-.7-0.51A4.71,4.71,0,0,1,249,616l-10.82-15.14a3.17,3.17,0,0,0-1.3-1.12,5.38,5.38,0,0,0-2.12-.33h-2.44v18.24h-8.7V575.57h8.7v17.37Z"/><path class="a" d="M278.61,575.62a2.07,2.07,0,0,1,.71.2,2.75,2.75,0,0,1,.61.42,5.86,5.86,0,0,1,.64.7l21.11,26.83q-0.12-1.1-.17-2.15t-0.06-2V575.57h7.69v42.08h-4.5a3.94,3.94,0,0,1-1.71-.33,4.13,4.13,0,0,1-1.36-1.14l-21-26.65q0.09,1,.13,2t0,1.81v24.33h-7.68V575.57h4.58A8.61,8.61,0,0,1,278.61,575.62Z"/><path class="a" d="M367.78,596.6a23.17,23.17,0,0,1-1.55,8.55A19.77,19.77,0,0,1,355,616.48a24.53,24.53,0,0,1-17.63,0A20.4,20.4,0,0,1,330.6,612a19.93,19.93,0,0,1-4.39-6.82,24.33,24.33,0,0,1,0-17.1,20,20,0,0,1,4.39-6.8,20.4,20.4,0,0,1,6.82-4.51,24.53,24.53,0,0,1,17.63,0,19.85,19.85,0,0,1,11.18,11.34A23,23,0,0,1,367.78,596.6Zm-8.9,0a18.8,18.8,0,0,0-.87-5.93,12.56,12.56,0,0,0-2.51-4.47,10.8,10.8,0,0,0-4-2.81,14.94,14.94,0,0,0-10.6,0,10.78,10.78,0,0,0-4,2.81,12.56,12.56,0,0,0-2.51,4.47,20.74,20.74,0,0,0,0,11.89,12.43,12.43,0,0,0,2.51,4.45,10.84,10.84,0,0,0,4,2.8,14.94,14.94,0,0,0,10.6,0,10.87,10.87,0,0,0,4-2.8,12.43,12.43,0,0,0,2.51-4.45A18.89,18.89,0,0,0,358.87,596.6Z"/><path class="a" d="M378.24,575.57h7.31a3.3,3.3,0,0,1,1.9.52,2.38,2.38,0,0,1,1,1.39L395,601.21q0.23,1,.48,2.15t0.48,2.41q0.26-1.28.55-2.42t0.64-2.13l7.6-23.72a2.76,2.76,0,0,1,1-1.32,3,3,0,0,1,1.87-.59h2.55a3,3,0,0,1,1.84.54,3.26,3.26,0,0,1,1.06,1.38l7.57,23.72q0.32,0.93.62,2t0.54,2.32q0.23-1.22.46-2.32t0.46-2l6.52-23.72a2.47,2.47,0,0,1,1-1.33,3.08,3.08,0,0,1,1.88-.58h6.84l-13,42.08H418l-8.61-27.52a11.49,11.49,0,0,1-.42-1.28q-0.19-.7-0.36-1.45l-0.39,1.45q-0.19.7-.39,1.28l-8.7,27.52h-7.89Z"/><path class="a" d="M461.53,610.58H477.8v7.08h-25V575.57h8.7v35Z"/><path class="a" d="M519.07,575.57v6.82H501v10.82h14v6.58H501v11h18v6.82h-26.8V575.57h26.8Z"/><path class="a" d="M572.46,596.6a22.63,22.63,0,0,1-1.55,8.48,19.29,19.29,0,0,1-4.38,6.66,20,20,0,0,1-6.8,4.35,23.86,23.86,0,0,1-8.82,1.57H534.73V575.57h16.18a23.86,23.86,0,0,1,8.82,1.57,19.92,19.92,0,0,1,6.8,4.36,19.47,19.47,0,0,1,4.38,6.66A22.43,22.43,0,0,1,572.46,596.6Zm-8.93,0a18.94,18.94,0,0,0-.87-5.95,12.53,12.53,0,0,0-2.49-4.47,10.9,10.9,0,0,0-4-2.81,13.51,13.51,0,0,0-5.29-1h-7.42v28.45h7.42a13.67,13.67,0,0,0,5.29-1,10.66,10.66,0,0,0,4-2.81,12.67,12.67,0,0,0,2.49-4.48A19,19,0,0,0,563.52,596.6Z"/><path class="a" d="M616.08,617a26.77,26.77,0,0,1-7.7,1.09,26.1,26.1,0,0,1-9.4-1.61A21.14,21.14,0,0,1,591.8,612a19.77,19.77,0,0,1-4.61-6.82,22.39,22.39,0,0,1-1.62-8.61,23.49,23.49,0,0,1,1.55-8.67,19.42,19.42,0,0,1,4.42-6.79,20.21,20.21,0,0,1,6.95-4.44,24.86,24.86,0,0,1,9.12-1.59,26.68,26.68,0,0,1,4.87.42,23.56,23.56,0,0,1,4.18,1.16,19.73,19.73,0,0,1,6.41,4l-2.52,3.89a2.34,2.34,0,0,1-1.51,1.13,2.76,2.76,0,0,1-2-.46q-1-.64-2-1.15a15.78,15.78,0,0,0-2.13-.88,15,15,0,0,0-2.46-.58,20.72,20.72,0,0,0-3.07-.2,13.38,13.38,0,0,0-5.31,1,11.35,11.35,0,0,0-4,2.87,12.83,12.83,0,0,0-2.57,4.47,17.81,17.81,0,0,0-.9,5.83,18.3,18.3,0,0,0,1,6.22,12.94,12.94,0,0,0,2.78,4.63,11.86,11.86,0,0,0,4.31,2.87,16.45,16.45,0,0,0,9.31.57,18.65,18.65,0,0,0,3.2-1.15v-7.08H610.3a1.85,1.85,0,0,1-1.32-.45,1.5,1.5,0,0,1-.48-1.15v-4.84h14.44v17.37A22.55,22.55,0,0,1,616.08,617Z"/><path class="a" d="M666,575.57v6.82H648v10.82h14v6.58H648v11h18v6.82h-26.8V575.57H666Z"/><path class="a" d="M72.58,685.86H67.25V646.45h5.33v39.41Z"/><path class="a" d="M95.64,646.63a2.75,2.75,0,0,1,.78.73l22.82,29.7q-0.08-.71-0.11-1.39t0-1.31V646.45h4.67v39.41h-2.7a2.29,2.29,0,0,1-1.06-.22,2.67,2.67,0,0,1-.84-0.74l-22.8-29.67q0.06,0.69.08,1.35t0,1.21v28.08H91.83V646.45h2.75A2.39,2.39,0,0,1,95.64,646.63Z"/><path class="a" d="M168.94,646.45v4.48H156.21v34.92h-5.33V650.94H138.08v-4.48h30.86Z"/><path class="a" d="M207.52,646.45v4.34H188.6v13.09h15.32v4.18H188.6v13.45h18.92v4.34H183.24V646.45h24.28Z"/><path class="a" d="M229.74,669.42v16.45h-5.31V646.45h11.14a24.34,24.34,0,0,1,6.46.76,12.35,12.35,0,0,1,4.5,2.19,8.76,8.76,0,0,1,2.63,3.45,11.53,11.53,0,0,1,.85,4.52,11.33,11.33,0,0,1-.66,3.91,10.33,10.33,0,0,1-1.91,3.26,11.44,11.44,0,0,1-3.05,2.46,15.08,15.08,0,0,1-4.08,1.54,5.64,5.64,0,0,1,1.76,1.68l11.49,15.65h-4.73a2.33,2.33,0,0,1-2.15-1.13l-10.23-14.08a3,3,0,0,0-1-.95,3.67,3.67,0,0,0-1.65-.29h-4Zm0-3.88h5.58a13.59,13.59,0,0,0,4.11-.56,8.36,8.36,0,0,0,3-1.59,6.62,6.62,0,0,0,1.8-2.46,8,8,0,0,0,.61-3.16,6.28,6.28,0,0,0-2.32-5.31q-2.32-1.79-6.92-1.79h-5.83v14.88Z"/><path class="a" d="M271.8,646.63a2.75,2.75,0,0,1,.78.73l22.82,29.7q-0.08-.71-0.11-1.39t0-1.31V646.45h4.67v39.41h-2.7a2.29,2.29,0,0,1-1.06-.22,2.67,2.67,0,0,1-.84-0.74l-22.8-29.67q0.06,0.69.08,1.35t0,1.21v28.08H268V646.45h2.75A2.39,2.39,0,0,1,271.8,646.63Z"/><path class="a" d="M350.69,685.86h-4.12a1.77,1.77,0,0,1-1.15-.36,2.19,2.19,0,0,1-.66-0.91l-3.69-9.52H323.38l-3.69,9.52a2.15,2.15,0,0,1-.66.88,1.75,1.75,0,0,1-1.15.38h-4.12l15.76-39.41h5.42Zm-25.82-14.63h14.71l-6.19-16a29.93,29.93,0,0,1-1.18-3.71q-0.3,1.13-.59,2.08t-0.56,1.66Z"/><path class="a" d="M387.56,646.45v4.48H374.83v34.92H369.5V650.94H356.71v-4.48h30.86Z"/><path class="a" d="M408.19,685.86h-5.33V646.45h5.33v39.41Z"/><path class="a" d="M464,666.17a22.76,22.76,0,0,1-1.4,8.13,18.62,18.62,0,0,1-4,6.37,17.69,17.69,0,0,1-6.15,4.14,22.1,22.1,0,0,1-15.85,0,17.72,17.72,0,0,1-6.13-4.14,18.6,18.6,0,0,1-4-6.37,24.25,24.25,0,0,1,0-16.25,18.75,18.75,0,0,1,4-6.38,17.8,17.8,0,0,1,6.13-4.17,21.89,21.89,0,0,1,15.85,0,17.77,17.77,0,0,1,6.15,4.17,18.76,18.76,0,0,1,4,6.38A22.76,22.76,0,0,1,464,666.17Zm-5.47,0a20,20,0,0,0-1-6.52,13.78,13.78,0,0,0-2.8-4.88,12.17,12.17,0,0,0-4.4-3.07,16,16,0,0,0-11.52,0,12.29,12.29,0,0,0-4.41,3.07,13.66,13.66,0,0,0-2.82,4.88,21.9,21.9,0,0,0,0,13,13.69,13.69,0,0,0,2.82,4.87,12.14,12.14,0,0,0,4.41,3.05,16.19,16.19,0,0,0,11.52,0,12,12,0,0,0,4.4-3.05,13.81,13.81,0,0,0,2.8-4.87A19.89,19.89,0,0,0,458.57,666.17Z"/><path class="a" d="M483.83,646.63a2.75,2.75,0,0,1,.78.73l22.82,29.7q-0.08-.71-0.11-1.39t0-1.31V646.45H512v39.41h-2.7a2.29,2.29,0,0,1-1.06-.22,2.67,2.67,0,0,1-.84-0.74l-22.8-29.67q0.06,0.69.08,1.35t0,1.21v28.08H480V646.45h2.75A2.39,2.39,0,0,1,483.83,646.63Z"/><path class="a" d="M562.71,685.86h-4.12a1.77,1.77,0,0,1-1.15-.36,2.19,2.19,0,0,1-.66-0.91l-3.69-9.52H535.4l-3.69,9.52a2.15,2.15,0,0,1-.66.88,1.75,1.75,0,0,1-1.15.38h-4.12l15.76-39.41H547Zm-25.82-14.63H551.6l-6.19-16a29.93,29.93,0,0,1-1.18-3.71q-0.3,1.13-.59,2.08t-0.56,1.66Z"/><path class="a" d="M581.71,681.38h17v4.48H576.38V646.45h5.33v34.92Z"/><path class="a" d="M439.61,132.73l-6.32-4.81C434.41,126.55,523.05,7.7,523.05,7.7l6.4,4.78L439.61,132.73"/><rect class="a" x="411.11" y="95.25" width="52.64" height="7.98" transform="translate(123.57 419.7) rotate(-58.38)"/><rect class="a" x="391.45" y="79.98" width="67.41" height="7.98" transform="translate(160.53 427.17) rotate(-63.54)"/><rect class="a" x="371.76" y="68.39" width="76.23" height="7.98" transform="translate(193.42 427.88) rotate(-68.68)"/><rect class="a" x="343.16" y="48.02" width="106" height="7.98" transform="translate(235.77 417.96) rotate(-73.81)"/><rect class="a" x="336.66" y="59.21" width="73.48" height="7.98" transform="translate(239.81 417.57) rotate(-78.95)"/><rect class="a" x="320.85" y="59.47" width="67.39" height="7.98" transform="translate(254.89 409.58) rotate(-84.08)"/><rect class="a" x="311" y="67.09" width="49.98" height="7.98" transform="matrix(0.01, -1, 1, 0.01, 260.41, 406.08)"/><rect class="a" x="313.34" y="21.15" width="7.98" height="75.51" transform="translate(-3.57 24.42) rotate(-4.38)"/><rect class="a" x="296.06" y="40.5" width="7.98" height="58.31" transform="matrix(0.99, -0.17, 0.17, 0.99, -7.39, 50.61)"/><rect class="a" x="279.23" y="50.8" width="7.98" height="51.68" transform="translate(-10.18 74.2) rotate(-14.67)"/><rect class="a" x="259.08" y="37.87" width="7.98" height="70.43" transform="translate(-9.2 93.48) rotate(-19.81)"/><rect class="a" x="249.41" y="79.06" width="7.98" height="34.65" transform="translate(-17.01 115.92) rotate(-24.96)"/><rect class="a" x="231.92" y="77.94" width="7.98" height="44.27" transform="translate(-18.38 131.78) rotate(-30.09)"/><rect class="a" x="226.09" y="115.22" width="7.98" height="13.58" transform="translate(-28.24 155.1) rotate(-35.24)"/><rect class="a" x="195.69" y="76.93" width="7.98" height="68.22" transform="translate(-24.37 155.82) rotate(-40.38)"/><rect class="a" x="186.65" y="100.3" width="7.98" height="55.57" transform="translate(-34.32 174.39) rotate(-45.53)"/><rect class="a" x="165.98" y="95.31" width="7.98" height="78.02" transform="translate(-41.65 180.65) rotate(-50.67)"/><rect class="a" x="159.07" y="118.87" width="7.98" height="67.28" transform="translate(-54.72 201.69) rotate(-55.81)"/><rect class="a" x="126.35" y="95.47" width="7.98" height="119.96" transform="translate(-68.84 193.92) rotate(-60.95)"/><rect class="a" x="152.58" y="168.71" width="7.98" height="42.26" transform="translate(-80.43 256.05) rotate(-66.1)"/><rect class="a" x="116.2" y="142.91" width="7.98" height="105.75" transform="translate(-103.85 246.62) rotate(-71.24)"/><rect class="a" x="104.74" y="154.89" width="7.98" height="117.74" transform="translate(-124.62 269.11) rotate(-76.38)"/><rect class="a" x="135.68" y="215.76" width="7.98" height="47.12" transform="translate(-117.62 342.19) rotate(-81.52)"/><rect class="a" x="114.7" y="212.91" width="7.98" height="85.52" transform="translate(-143.45 359.3) rotate(-86.67)"/><rect class="a" x="96" y="270.65" width="65.19" height="7.98" transform="matrix(1, -0.03, 0.03, 1, -8.6, 4.19)"/><rect class="a" x="79.29" y="290.07" width="83.36" height="7.98" transform="translate(-34.7 16.8) rotate(-6.95)"/><rect class="a" x="114.99" y="305.55" width="50.46" height="7.98" transform="translate(-61.76 36.26) rotate(-12.1)"/><rect class="a" x="149.84" y="318.08" width="19.38" height="7.98" transform="matrix(0.96, -0.3, 0.3, 0.96, -88.28, 61.75)"/><rect class="a" x="115.61" y="341.31" width="60.7" height="7.98" transform="translate(-120.5 81.61) rotate(-22.39)"/><rect class="a" x="114.37" y="359.97" width="70.14" height="7.98" transform="translate(-151.34 110.32) rotate(-27.54)"/><rect class="a" x="111.91" y="379.52" width="82.93" height="7.98" transform="translate(-182.74 143.45) rotate(-32.67)"/><rect class="a" x="129.51" y="392.94" width="75.61" height="7.98" transform="matrix(0.79, -0.61, 0.61, 0.79, -208.24, 185.97)"/><rect class="a" x="145.33" y="405.88" width="71.44" height="7.98" transform="translate(-230.75 233.26) rotate(-42.96)"/><rect class="a" x="156.74" y="419.8" width="73.71" height="7.98" transform="translate(-251.1 284.79) rotate(-48.09)"/><rect class="a" x="176.57" y="429.03" width="67.05" height="7.98" transform="translate(-262.54 342.12) rotate(-53.23)"/><rect class="a" x="217" y="425.34" width="34.02" height="7.98" transform="translate(-254.28 403.59) rotate(-58.39)"/><rect class="a" x="191.99" y="458.27" width="89.15" height="7.98" transform="translate(-282.68 468.01) rotate(-63.53)"/><rect class="a" x="225.39" y="455.48" width="66.24" height="7.98" transform="translate(-263.52 533.16) rotate(-68.67)"/><rect class="a" x="258.13" y="449.93" width="42.32" height="7.98" transform="matrix(0.28, -0.96, 0.96, 0.28, -234.53, 595.49)"/><rect class="a" x="263.98" y="463.09" width="60.79" height="7.98" transform="translate(-220.45 666.52) rotate(-78.95)"/><rect class="a" x="281.39" y="466.29" width="61.82" height="7.98" transform="translate(-187.66 732.45) rotate(-84.08)"/><rect class="a" x="309.49" y="457.59" width="42.29" height="7.98" transform="translate(-135.37 785.94) rotate(-89.23)"/><rect class="a" x="344.9" y="439.86" width="7.98" height="66.57" transform="translate(-35.13 28.04) rotate(-4.38)"/><rect class="a" x="364.46" y="437.53" width="7.98" height="81.75" transform="translate(-74.1 67.58) rotate(-9.53)"/><rect class="a" x="386.87" y="433.06" width="7.98" height="111" transform="translate(-110.97 114.9) rotate(-14.67)"/><rect class="a" x="395.94" y="428.83" width="7.98" height="49.39" transform="translate(-130.06 162.42) rotate(-19.81)"/><rect class="a" x="415.99" y="421.29" width="7.98" height="66.99" transform="translate(-152.66 219.64) rotate(-24.95)"/><rect class="a" x="448.53" y="408.42" width="7.98" height="131.45" transform="translate(-176.76 290.86) rotate(-30.1)"/><rect class="a" x="449.87" y="402.19" width="7.98" height="73.8" transform="translate(-170.18 342.36) rotate(-35.24)"/><polygon class="a" points="445.93 407.05 441.74 402.07 447.82 396.9 452.01 401.88 445.93 407.05"/><rect class="a" x="477.1" y="378.47" width="7.98" height="70.06" transform="translate(-151.02 467.1) rotate(-45.53)"/><rect class="a" x="483.51" y="367.49" width="7.98" height="54.49" transform="translate(-126.8 521.64) rotate(-50.67)"/><rect class="a" x="498.94" y="350.66" width="7.98" height="65.9" transform="translate(-96.98 584.09) rotate(-55.81)"/><rect class="a" x="501.32" y="339.27" width="7.98" height="49.25" transform="translate(-58.14 629) rotate(-60.96)"/><rect class="a" x="529.16" y="310.48" width="7.98" height="92.91" transform="translate(-9.19 699.74) rotate(-66.1)"/><rect class="a" x="502.71" y="316.27" width="7.98" height="21.96" transform="translate(33.93 701.86) rotate(-71.25)"/><path class="a" d="M580.49,332.34s-78.5-19-80.81-19.62l1.89-7.71,80.8,19.57Z"/><rect class="a" x="532.18" y="265.64" width="7.98" height="65.87" transform="translate(161.85 784.9) rotate(-81.53)"/><rect class="a" x="529.27" y="251.86" width="7.98" height="56.25" transform="translate(222.75 796.07) rotate(-86.67)"/><rect class="a" x="505.39" y="258.25" width="41.83" height="7.98" transform="translate(-8.03 16.77) rotate(-1.81)"/><rect class="a" x="504.1" y="241.3" width="36.29" height="7.98" transform="translate(-25.84 64.99) rotate(-6.95)"/><rect class="a" x="501.1" y="222.72" width="52.87" height="7.98" transform="translate(-35.79 115.55) rotate(-12.09)"/><rect class="a" x="497.21" y="209.61" width="25" height="7.98" transform="translate(-40.41 160.75) rotate(-17.25)"/><rect class="a" x="491.19" y="191.9" width="36.07" height="7.98" transform="translate(-36.23 208.64) rotate(-22.38)"/><rect class="a" x="481.39" y="165.8" width="82.04" height="7.98" transform="translate(-19.33 260.69) rotate(-27.53)"/><rect class="a" x="470" y="143.08" width="104.88" height="7.98" transform="translate(3.27 305.29) rotate(-32.67)"/><rect class="a" x="466.88" y="151.44" width="23.88" height="7.98" transform="translate(5.26 326.22) rotate(-37.82)"/><path class="a" d="M462.11,153.89l-5.38-5.9C458,146.82,470,135.63,470,135.63l5.44,5.84-13.33,12.41"/><rect class="a" x="425.9" y="85.81" width="135.27" height="7.98" transform="translate(97.09 397.17) rotate(-48.1)"/><rect class="b" x="394.42" y="182.61" width="3.02" height="3.99" transform="translate(11.01 391.19) rotate(-53.22)"/><rect class="b" x="366.75" y="188.46" width="29.15" height="3.99" transform="translate(19.24 415.33) rotate(-58.38)"/><rect class="b" x="362.04" y="182.93" width="25.72" height="3.99" transform="translate(42.3 438.17) rotate(-63.54)"/><rect class="b" x="355.75" y="178.62" width="23.74" height="3.99" transform="translate(65.75 457.46) rotate(-68.69)"/><rect class="b" x="353.44" y="171.62" width="14.84" height="3.99" transform="translate(93.52 471.76) rotate(-73.81)"/><rect class="b" x="339.37" y="174.03" width="24.01" height="3.99" transform="translate(111.31 487.19) rotate(-78.96)"/><rect class="b" x="330.17" y="173.56" width="25.56" height="3.99" transform="translate(132.98 498.58) rotate(-84.08)"/><rect class="b" x="319.38" y="175.46" width="30.34" height="3.99" transform="translate(152.69 509.64) rotate(-89.24)"/><rect class="b" x="324.15" y="162.55" width="3.99" height="23.6" transform="matrix(1, -0.08, 0.08, 1, -12.37, 25.44)"/><rect class="b" x="316.1" y="163.54" width="3.99" height="27.87" transform="translate(-24.97 55.06) rotate(-9.52)"/><rect class="b" x="308.27" y="165.24" width="3.99" height="29.89" transform="translate(-35.51 84.44) rotate(-14.67)"/><rect class="b" x="299.51" y="167.83" width="3.99" height="24.28" transform="translate(-43.15 112.84) rotate(-19.81)"/><rect class="b" x="293.93" y="170.54" width="3.99" height="34.79" transform="translate(-51.66 142.4) rotate(-24.96)"/><rect class="b" x="286.34" y="174.36" width="3.99" height="32.69" transform="translate(-56.76 170.32) rotate(-30.1)"/><rect class="b" x="282" y="177.93" width="3.99" height="41.14" transform="translate(-62.49 200.26) rotate(-35.24)"/><rect class="b" x="270.81" y="184.51" width="3.99" height="25.33" transform="translate(-62.75 223.71) rotate(-40.38)"/><rect class="b" x="266.01" y="189.66" width="3.99" height="29.07" transform="translate(-65.47 252.35) rotate(-45.52)"/><rect class="b" x="258.23" y="196.86" width="3.99" height="23.15" transform="translate(-65.93 277.61) rotate(-50.67)"/><rect class="b" x="254.29" y="203.05" width="3.99" height="25.89" transform="matrix(0.56, -0.83, 0.83, 0.56, -66.4, 306.6)"/><rect class="b" x="243.59" y="213.88" width="3.99" height="11.45" transform="translate(-65.63 327.7) rotate(-60.96)"/><rect class="b" x="249.6" y="215.42" width="3.99" height="33.38" transform="translate(-62.54 368.09) rotate(-66.1)"/><rect class="b" x="238.23" y="228.94" width="3.99" height="15.53" transform="translate(-61.15 388.07) rotate(-71.25)"/><path class="b" d="M241.4,248.12l-11.64-2.82,0.93-3.88c1.26,0.32,11.65,2.82,11.65,2.82Z"/><rect class="b" x="242.26" y="239.02" width="3.99" height="32.08" transform="translate(-44.01 459.06) rotate(-81.53)"/><rect class="b" x="235.95" y="252.21" width="3.99" height="21.13" transform="translate(-38.2 485.06) rotate(-86.67)"/><rect class="b" x="227.27" y="269.27" width="26.49" height="3.99" transform="translate(-8.38 7.67) rotate(-1.8)"/><rect class="b" x="227.92" y="277.86" width="21.79" height="3.99" transform="translate(-32.11 30.95) rotate(-6.95)"/><rect class="b" x="229.23" y="285.36" width="30.59" height="3.99" transform="translate(-54.77 57.6) rotate(-12.09)"/><rect class="b" x="231.1" y="291.98" width="39.1" height="3.99" transform="translate(-75.92 87.57) rotate(-17.25)"/><rect class="b" x="234.15" y="301.43" width="27.86" height="3.99" transform="translate(-96.85 117.32) rotate(-22.38)"/><rect class="b" x="237.78" y="309.51" width="25.33" height="3.99" transform="translate(-115.59 150.96) rotate(-27.52)"/><rect class="b" x="242.27" y="317.76" width="21.64" height="3.99" transform="translate(-132.58 187.24) rotate(-32.68)"/><rect class="b" x="246.95" y="324.02" width="23.99" height="3.99" transform="translate(-145.5 227.21) rotate(-37.81)"/><rect class="b" x="252.26" y="330.04" width="25.22" height="3.99" transform="translate(-155.23 269.4) rotate(-42.94)"/><rect class="b" x="258.31" y="336.08" width="24.79" height="3.99" transform="translate(-161.71 313.78) rotate(-48.1)"/><rect class="b" x="264.55" y="340.89" width="26.07" height="3.99" transform="translate(-163.24 360.21) rotate(-53.26)"/><rect class="b" x="269.39" y="341.9" width="34.75" height="3.99" transform="translate(-156.42 407.79) rotate(-58.38)"/><rect class="b" x="280.38" y="352.27" width="20.21" height="3.99" transform="translate(-156.12 456.4) rotate(-63.53)"/><rect class="b" x="286.36" y="352.99" width="26.17" height="3.99" transform="translate(-140.19 504.67) rotate(-68.65)"/><rect class="b" x="291.74" y="352.32" width="33.15" height="3.99" transform="translate(-117.92 551.61) rotate(-73.81)"/><rect class="b" x="301.41" y="356.48" width="28.54" height="3.99" transform="translate(-96.63 599.65) rotate(-78.96)"/><rect class="b" x="309.89" y="358.07" width="27.8" height="3.99" transform="translate(-67.69 645.07) rotate(-84.09)"/><rect class="b" x="315.41" y="355.78" width="33.34" height="3.99" transform="translate(-30.11 685.04) rotate(-89.23)"/><rect class="b" x="338.38" y="347.88" width="3.99" height="26.31" transform="translate(-26.57 27.04) rotate(-4.38)"/><rect class="b" x="347.02" y="351.32" width="3.99" height="21.83" transform="translate(-55.09 62.7) rotate(-9.52)"/><rect class="b" x="356.27" y="356.5" width="3.99" height="14.75" transform="translate(-80.43 102.53) rotate(-14.66)"/><rect class="b" x="362.05" y="338.5" width="3.99" height="30.59" transform="translate(-98.35 144.29) rotate(-19.81)"/><rect class="b" x="370.61" y="340.06" width="3.99" height="25.71" transform="translate(-114.09 190.1) rotate(-24.95)"/><rect class="b" x="382.48" y="352.73" width="3.99" height="7.98" transform="translate(-127.04 240.85) rotate(-30.09)"/><rect class="b" x="385.61" y="333.36" width="3.99" height="23.86" transform="translate(-128.19 286.84) rotate(-35.23)"/><rect class="b" x="386.11" y="311.39" width="3.99" height="42.93" transform="translate(-123.18 330.71) rotate(-40.38)"/><rect class="b" x="398.18" y="321.73" width="3.99" height="24.69" transform="translate(-118.56 385.57) rotate(-45.53)"/><rect class="b" x="402.09" y="311.86" width="3.99" height="29.1" transform="translate(-104.51 432.06) rotate(-50.66)"/><rect class="b" x="408.45" y="308" width="3.99" height="25.63" transform="translate(-85.57 480.04) rotate(-55.81)"/><rect class="b" x="410.64" y="297.13" width="3.99" height="30.66" transform="translate(-60.89 521.46) rotate(-60.95)"/><rect class="b" x="419.55" y="297.96" width="3.99" height="19.12" transform="translate(-30.41 568.29) rotate(-66.1)"/><rect class="b" x="413.43" y="276.95" width="3.99" height="38.7" transform="translate(1.22 594.3) rotate(-71.23)"/><rect class="b" x="424.11" y="280.29" width="3.99" height="21.19" transform="translate(43.02 636.47) rotate(-76.37)"/><rect class="b" x="423.46" y="269.22" width="3.99" height="25.83" transform="translate(83.61 661.29) rotate(-81.51)"/><rect class="b" x="423.17" y="259.67" width="3.99" height="28.16" transform="translate(127.14 682.27) rotate(-86.67)"/><rect class="b" x="406.49" y="263.58" width="32.87" height="3.99" transform="translate(-8.06 13.3) rotate(-1.78)"/><rect class="b" x="404.76" y="255.62" width="33.99" height="3.99" transform="translate(-28.07 52.92) rotate(-6.95)"/><rect class="b" x="407.45" y="247.31" width="29.94" height="3.99" transform="translate(-42.85 94) rotate(-12.09)"/><rect class="b" x="398.27" y="240.48" width="37.21" height="3.99" transform="matrix(0.96, -0.3, 0.3, 0.96, -53.14, 134.47)"/><rect class="b" x="398.47" y="232.53" width="34.24" height="3.99" transform="translate(-57.98 175.78) rotate(-22.37)"/><path class="b" d="M427.41,219.38l0.91,1.77-19.46,10.14L407,227.75l19.45-10.09Z"/><rect class="b" x="408.92" y="213.16" width="14.89" height="3.99" transform="translate(-50.28 258.69) rotate(-32.66)"/><rect class="b" x="382.85" y="213.11" width="38.32" height="3.99" transform="translate(-47.46 291.63) rotate(-37.81)"/><rect class="b" x="377" y="207.48" width="39.25" height="3.99" transform="translate(-36.4 326.44) rotate(-42.96)"/><rect class="b" x="398.65" y="189.91" width="6.65" height="3.99" transform="translate(-9.37 362.82) rotate(-48.08)"/></svg>